<svg width="32" height="33" viewBox="0 0 32 33" fill="none" xmlns="http://www.w3.org/2000/svg">
<g clip-path="url(#clip0_120_324)">
<path d="M31.3928 10.3239L16.7678 0.573854C16.2686 0.266666 15.7359 0.263854 15.2321 0.573854L0.607125 10.3239C0.232125 10.5738 0 11.0203 0 11.4667V21.2166C0 21.663 0.232125 22.1095 0.607188 22.3595L15.2322 32.1109C15.7314 32.418 16.2641 32.4209 16.7679 32.1109L31.3929 22.3595C31.7679 22.1095 32.0001 21.663 32.0001 21.2166V11.4667C32 11.0203 31.7679 10.5738 31.3928 10.3239ZM17.375 4.28804L28.1429 11.4667L23.3393 14.681L17.375 10.6988V4.28804ZM14.625 4.28804V10.6988L8.66069 14.681L3.85713 11.4667L14.625 4.28804ZM2.75 14.0381L6.19644 16.3417L2.75 18.6452V14.0381ZM14.625 28.3953L3.85713 21.2167L8.66069 18.0024L14.625 21.9845V28.3953ZM16 19.5917L11.1428 16.3417L16 13.0917L20.8572 16.3417L16 19.5917ZM17.375 28.3953V21.9845L23.3393 18.0024L28.1429 21.2167L17.375 28.3953ZM29.25 18.6452L25.8036 16.3417L29.25 14.0381V18.6452Z" fill="#6FD08C"/>
</g>
<defs>
<clipPath id="clip0_120_324">
<rect width="32" height="32" fill="white" transform="translate(0 0.342041)"/>
</clipPath>
</defs>
</svg>
