<svg width="32" height="34" viewBox="0 0 32 34" fill="none" xmlns="http://www.w3.org/2000/svg">
<path d="M10.7032 25.9911C10.7032 26.1194 10.5548 26.2221 10.3677 26.2221C10.1548 26.2413 10.0065 26.1387 10.0065 25.9911C10.0065 25.8629 10.1548 25.7602 10.3419 25.7602C10.5355 25.741 10.7032 25.8436 10.7032 25.9911ZM8.69677 25.7025C8.65161 25.8308 8.78065 25.9783 8.97419 26.0168C9.14194 26.0809 9.33548 26.0168 9.37419 25.8885C9.4129 25.7602 9.29032 25.6127 9.09677 25.555C8.92903 25.5101 8.74194 25.5742 8.69677 25.7025ZM11.5484 25.5934C11.3613 25.6383 11.2323 25.7602 11.2516 25.9078C11.271 26.036 11.4387 26.1194 11.6323 26.0745C11.8194 26.0296 11.9484 25.9078 11.929 25.7795C11.9097 25.6576 11.7355 25.5742 11.5484 25.5934ZM15.7935 1.01318C6.84516 1.01318 0 7.76762 0 16.6645C0 23.7782 4.50323 29.8655 10.9355 32.0079C11.7613 32.1555 12.0516 31.6487 12.0516 31.2318C12.0516 30.8341 12.0323 28.6403 12.0323 27.2933C12.0323 27.2933 7.51613 28.2555 6.56774 25.3818C6.56774 25.3818 5.83226 23.5152 4.77419 23.0341C4.77419 23.0341 3.29677 22.027 4.87742 22.0462C4.87742 22.0462 6.48387 22.1745 7.36774 23.7012C8.78064 26.1772 11.1484 25.4652 12.071 25.0418C12.2194 24.0155 12.6387 23.3035 13.1032 22.8801C9.49677 22.4824 5.85806 21.9629 5.85806 15.7921C5.85806 14.0282 6.34839 13.143 7.38065 12.014C7.2129 11.5971 6.66452 9.87799 7.54839 7.65858C8.89677 7.24164 12 9.39049 12 9.39049C13.2903 9.03128 14.6774 8.84526 16.0516 8.84526C17.4258 8.84526 18.8129 9.03128 20.1032 9.39049C20.1032 9.39049 23.2065 7.23522 24.5548 7.65858C25.4387 9.8844 24.8903 11.5971 24.7226 12.014C25.7548 13.1494 26.3871 14.0346 26.3871 15.7921C26.3871 21.9821 22.5871 22.476 18.9806 22.8801C19.5742 23.3869 20.0774 24.349 20.0774 25.8564C20.0774 28.0181 20.0581 30.693 20.0581 31.2189C20.0581 31.6359 20.3548 32.1426 21.1742 31.9951C27.6258 29.8655 32 23.7782 32 16.6645C32 7.76762 24.7419 1.01318 15.7935 1.01318ZM6.27097 23.1367C6.1871 23.2008 6.20645 23.3484 6.31613 23.4703C6.41935 23.5729 6.56774 23.6178 6.65161 23.5344C6.73548 23.4703 6.71613 23.3227 6.60645 23.2008C6.50323 23.0982 6.35484 23.0533 6.27097 23.1367ZM5.57419 22.6171C5.52903 22.7005 5.59355 22.8032 5.72258 22.8673C5.82581 22.9314 5.95484 22.9122 6 22.8224C6.04516 22.739 5.98064 22.6364 5.85161 22.5722C5.72258 22.5337 5.61935 22.553 5.57419 22.6171ZM7.66452 24.9007C7.56129 24.9841 7.6 25.1765 7.74839 25.2984C7.89677 25.4459 8.08387 25.4652 8.16774 25.3625C8.25161 25.2791 8.2129 25.0867 8.08387 24.9648C7.94194 24.8173 7.74839 24.7981 7.66452 24.9007ZM6.92903 23.9578C6.82581 24.0219 6.82581 24.1887 6.92903 24.3362C7.03226 24.4837 7.20645 24.5479 7.29032 24.4837C7.39355 24.4004 7.39355 24.2336 7.29032 24.086C7.2 23.9385 7.03226 23.8744 6.92903 23.9578Z" fill="#6FD08C"/>
</svg>
