<svg width="32" height="37" viewBox="0 0 32 37" fill="none" xmlns="http://www.w3.org/2000/svg">
<path d="M29.7143 2.28125H2.27857C1.02143 2.28125 0 3.31494 0 4.58389V31.9161C0 33.1851 1.02143 34.2188 2.27857 34.2188H29.7143C30.9714 34.2188 32 33.1851 32 31.9161V4.58389C32 3.31494 30.9714 2.28125 29.7143 2.28125ZM9.67143 29.6562H4.92857V14.4146H9.67857V29.6562H9.67143ZM7.3 12.333C5.77857 12.333 4.55 11.0997 4.55 9.58838C4.55 8.07705 5.77857 6.84375 7.3 6.84375C8.81429 6.84375 10.05 8.07705 10.05 9.58838C10.05 11.1068 8.82143 12.333 7.3 12.333ZM27.45 29.6562H22.7071V22.2422C22.7071 20.4742 22.6714 18.2001 20.2429 18.2001C17.7714 18.2001 17.3929 20.1249 17.3929 22.1139V29.6562H12.65V14.4146H17.2V16.4963H17.2643C17.9 15.2986 19.45 14.0368 21.7571 14.0368C26.5571 14.0368 27.45 17.1949 27.45 21.3012V29.6562Z" fill="#6FD08C"/>
</svg>
