<svg width="380" height="380" viewBox="0 0 380 380" fill="none" xmlns="http://www.w3.org/2000/svg">
<mask id="mask0_135_383" style="mask-type:alpha" maskUnits="userSpaceOnUse" x="0" y="0" width="380" height="380">
<circle cx="190" cy="190" r="190" fill="#FFEDEF"/>
</mask>
<g mask="url(#mask0_135_383)">
<circle cx="190" cy="190" r="190" fill="#9287FF"/>
<g clip-path="url(#clip0_135_383)">
<path d="M244 350.5C229.6 330.5 218.333 291.834 217 272.5L148.5 243L120 350.5H244Z" fill="#FAC4AC"/>
<mask id="mask1_135_383" style="mask-type:alpha" maskUnits="userSpaceOnUse" x="120" y="243" width="124" height="118">
<path d="M244 360.5C229.6 340.5 218.333 291.834 217 272.5L148.5 243L120 360.5H244Z" fill="#AC6651"/>
</mask>
<g mask="url(#mask1_135_383)">
<g style="mix-blend-mode:multiply">
<ellipse cx="214" cy="241" rx="59" ry="54" fill="black"/>
</g>
</g>
<path fill-rule="evenodd" clip-rule="evenodd" d="M273.887 181.917C273.86 181.802 273.832 181.686 273.804 181.57C273.777 181.454 273.749 181.339 273.72 181.223L257.324 112.786C257.307 112.718 257.291 112.651 257.275 112.583C257.259 112.515 257.242 112.447 257.226 112.379L257.153 112.076L257.152 112.076C246.934 70.6315 205.157 45.148 163.583 55.1088C122.009 65.0696 96.3164 106.718 105.989 148.294L105.987 148.294L122.979 219.212L122.993 219.209C133.595 260.113 175.063 285.15 216.33 275.262C257.598 265.375 283.217 224.265 274.132 182.997L274.145 182.994L273.887 181.917Z" fill="#FAC4AC"/>
<mask id="mask2_135_383" style="mask-type:alpha" maskUnits="userSpaceOnUse" x="103" y="52" width="174" height="226">
<path fill-rule="evenodd" clip-rule="evenodd" d="M273.978 182.146C273.934 181.956 273.889 181.767 273.844 181.577C273.798 181.387 273.752 181.198 273.705 181.009L257.362 112.794C257.343 112.715 257.324 112.636 257.305 112.557C257.287 112.479 257.268 112.4 257.248 112.321L257.184 112.05L257.182 112.05C246.959 70.5868 205.164 45.0918 163.571 55.0572C121.977 65.0225 96.2734 106.69 105.95 148.284L105.948 148.285L122.947 219.235L122.963 219.231C133.57 260.155 175.056 285.204 216.344 275.312C257.631 265.42 283.262 224.29 274.172 183.003L274.183 183L273.978 182.146Z" fill="#FAC4AC"/>
</mask>
<g mask="url(#mask2_135_383)">
<path d="M289.547 182.381C299.383 223.435 272.685 265.022 229.916 275.269C204.747 281.299 165.21 278.249 146.788 263.785C128.418 247.449 133.531 194.993 137.999 167.499C152.776 200.089 188.3 200.383 224.862 193.875C255.621 188.399 280.198 187.137 280.58 146.618C282.587 149.318 287.829 175.211 289.547 182.381Z" fill="#924C37"/>
<path d="M245.807 215.177C246.873 211.321 247.248 207.31 246.921 203.33C246.75 201.262 244.636 200.111 242.845 200.817C238.616 202.483 224.627 207.783 214.763 209.14C203.94 210.628 187.55 208.82 182.806 208.231C180.877 207.992 179.157 209.65 179.49 211.665C180.142 215.607 181.484 219.408 183.459 222.891C185.661 226.775 188.607 230.187 192.128 232.933C195.649 235.678 199.676 237.704 203.979 238.893C208.283 240.082 212.779 240.412 217.21 239.864C221.641 239.316 225.921 237.9 229.805 235.698C233.689 233.495 237.101 230.55 239.847 227.029C242.593 223.508 244.618 219.481 245.807 215.177Z" fill="#171921" stroke="#171921" stroke-width="4"/>
<mask id="mask3_135_383" style="mask-type:alpha" maskUnits="userSpaceOnUse" x="181" y="202" width="65" height="37">
<path d="M244.793 202.192C245.309 206.362 244.999 210.594 243.879 214.644C242.76 218.695 240.854 222.485 238.27 225.799C235.686 229.113 232.474 231.885 228.819 233.958C225.163 236.031 221.135 237.363 216.964 237.879C212.794 238.395 208.563 238.084 204.512 236.965C200.462 235.846 196.671 233.94 193.357 231.356C190.044 228.771 187.271 225.56 185.198 221.904C183.126 218.249 181.793 214.221 181.277 210.05L244.793 202.192Z" fill="#171921"/>
</mask>
<g mask="url(#mask3_135_383)">
<circle cx="217.522" cy="242.314" r="21.5" transform="rotate(-7.05286 217.522 242.314)" fill="#FC909F"/>
</g>
</g>
<ellipse cx="171.53" cy="147.403" rx="9" ry="13.5" transform="rotate(-6.77646 171.53 147.403)" fill="black"/>
<ellipse cx="235.53" cy="137.403" rx="9" ry="13.5" transform="rotate(-6.27568 235.53 137.403)" fill="black"/>
<ellipse cx="232.567" cy="132.548" rx="2.21699" ry="3.32549" transform="rotate(-6.27568 232.567 132.548)" fill="white"/>
<ellipse cx="167.567" cy="143.548" rx="2.21699" ry="3.32549" transform="rotate(-6.27568 167.567 143.548)" fill="white"/>
<ellipse cx="236.567" cy="128.166" rx="1.35353" ry="2.0303" transform="rotate(-6.27568 236.567 128.166)" fill="white"/>
<ellipse cx="171.567" cy="139.166" rx="1.35353" ry="2.0303" transform="rotate(-6.27568 171.567 139.166)" fill="white"/>
<path d="M209.704 148C209.704 164.662 218 177.754 218 177.754C218 177.754 213.852 184.895 202 182.514" stroke="#171921" stroke-width="4"/>
</g>
<path fill-rule="evenodd" clip-rule="evenodd" d="M267.999 66.5183C266.73 72.6009 263.377 77.8897 258.533 82.4855C267.963 116.69 268.177 136.576 262.935 140.371L248.078 90.1792C215.998 108.997 156.008 112.205 140.98 112.205C139.431 112.381 137.95 112.608 136.534 112.882C121.827 121.91 133.929 165.214 148.333 183.601L137.287 185.609C132.126 160.54 119.803 162.598 110.566 164.141L110.247 164.194C112.45 177.881 116.998 192.042 120.735 203.674L120.735 203.675L120.736 203.678L120.736 203.679C121.699 206.675 122.607 209.504 123.408 212.114C122.621 212.218 121.928 212.411 121.284 212.59L121.284 212.59C115.758 214.124 113.84 214.656 87.7621 150.361C81.2685 134.351 81.7115 120.083 86.7903 107.574C81.9911 102.749 72.3623 100.396 67 99.7575C77.482 93.6129 87.6658 94.8683 92.6483 96.6447C93.1521 95.895 93.6728 95.1528 94.2098 94.4182C93.2358 89.9874 86.213 84.9188 82.0502 82.5506C90.6455 78.2226 100.746 80.5074 105.136 82.3391C124.866 64.2483 154.382 52.1169 179.459 46.0376C228.475 34.1548 234.686 37.0019 234.686 37.0019C234.686 37.0019 272.958 42.743 267.999 66.5183Z" fill="#5A291B"/>
<path d="M225 114.033C230.247 111.585 242.593 109.351 250 120" stroke="black" stroke-width="6" stroke-linecap="round"/>
<path d="M155.488 136.851C157.439 131.282 164.611 120.714 177.691 123.001" stroke="black" stroke-width="6" stroke-linecap="round" stroke-linejoin="bevel"/>
<path d="M126 306.462C86.5936 315.447 62.6597 335.462 46.0176 367L183.5 390.499L326.519 367C305.984 336.757 273.5 316.5 229 310.5C210.698 308.032 190 339.999 190 339.999C190 339.999 142.197 302.769 126 306.462Z" fill="#FFF7F7"/>
<path d="M114.613 311.085L119.779 291.853C119.989 291.074 120.996 290.854 121.54 291.449C136.403 307.714 155.16 307.076 161.385 306.33C162.23 306.228 162.892 307.153 162.495 307.906L149.338 332.859C149.136 333.241 148.724 333.452 148.3 333.364C144.352 332.541 124.677 327.732 114.729 311.867C114.583 311.635 114.542 311.35 114.613 311.085Z" fill="#E0DDFF"/>
<path d="M245.195 310.981L233.614 291.499C233.221 290.837 232.252 290.848 231.833 291.494C226.096 300.33 216.202 304.4 212.742 305.602C212.119 305.819 211.834 306.558 212.17 307.125L225.673 329.94C225.874 330.281 226.255 330.465 226.635 330.357C228.77 329.749 236.095 326.685 245.182 312.021C245.377 311.706 245.384 311.3 245.195 310.981Z" fill="#E0DDFF"/>
<path d="M171.5 328.5L162.5 307L155.5 322L171.5 328.5Z" fill="black" stroke="black" stroke-width="4" stroke-linejoin="round"/>
<path d="M203 327.5L212 306L219 321L203 327.5Z" fill="black" stroke="black" stroke-width="4" stroke-linejoin="round"/>
<path d="M134.5 288L122.5 291L132.5 297.5L134.5 288Z" fill="black" stroke="black" stroke-width="4" stroke-linejoin="round"/>
<path d="M220 288L231 291L224 297.5L220 288Z" fill="black" stroke="black" stroke-width="4" stroke-linejoin="round"/>
<path fill-rule="evenodd" clip-rule="evenodd" d="M131.972 182.984C132.043 182.332 132.08 181.67 132.08 181C132.08 170.783 122.573 164 112.08 164C101.587 164 93.0801 170.5 94.08 182.5C94.6364 189.177 97.0258 193.572 100.731 196.217C100.142 197.241 99.8848 198.444 100.048 199.817C100.677 205.098 105.186 207 111.524 207C122.629 207 131.416 192.953 131.972 182.984Z" fill="#FAC4AC"/>
</g>
<defs>
<clipPath id="clip0_135_383">
<rect width="200" height="320" fill="white" transform="translate(90 31)"/>
</clipPath>
</defs>
</svg>
