<svg xmlns="http://www.w3.org/2000/svg" width="495" height="679" fill="none" viewBox="0 0 495 679">
  <g class="notepad">
    <path fill="#fff" d="M299.829 124.389c-.01-4.815-1.719-8.204-4.47-9.783 0 0 .02 0 .03.01l-15.251-8.872a8.297 8.297 0 0 0-.991-.476c-.112-.04-.223-.071-.334-.111-.152-.051-.304-.111-.466-.162-.08-.02-.161-.03-.242-.05a11.51 11.51 0 0 0-.577-.112c-.212-.03-.424-.06-.647-.081-.202-.02-.404-.02-.617-.03-.222 0-.455 0-.688.01-.212.01-.435.03-.647.061-.243.03-.475.06-.728.111a8.25 8.25 0 0 0-.678.152c-.121.03-.242.05-.374.081-.172.05-.344.101-.516.162-.03 0-.06.02-.081.03-.07.02-.141.04-.212.071-.435.152-.88.334-1.325.536-.101.04-.192.091-.293.142-.465.222-.931.455-1.406.728L16.221 252.977s-.01 0-.02.01c-.526.304-1.052.648-1.568 1.002-.172.121-.344.263-.516.384-.344.253-.677.496-1.011.769-.202.162-.395.344-.597.516-.303.263-.597.516-.89.789-.212.193-.404.405-.607.607-.273.274-.546.537-.809.82-.202.222-.404.455-.607.678-.252.283-.505.566-.748.86-.202.242-.384.495-.576.738-.233.294-.466.597-.688.901-.192.263-.364.526-.546.789a767.8 767.8 0 0 0-.638.941c-.171.273-.343.556-.505.829l-.577.971a4.01 4.01 0 0 1-.172.284c-.11.202-.212.415-.323.617-.202.374-.395.749-.577 1.133-.111.233-.222.465-.323.698-.425.921-.81 1.851-1.143 2.782 0 0-.01.031-.02.051a32.443 32.443 0 0 0-.597 1.841c-.03.091-.06.192-.091.283-.07.253-.132.516-.192.769a26.322 26.322 0 0 0-.637 3.42c-.01.131-.03.263-.051.394-.08.8-.142 1.589-.142 2.368l1.072 379.045c.01 4.806 1.71 8.185 4.44 9.773l15.252 8.873c-.172-.101-.334-.233-.496-.344 2.802 1.953 6.837 1.882 11.338-.718L285.75 529.679c8.414-4.857 15.211-16.633 15.18-26.305l-1.072-379.045-.03.06Zm-13.583-9.57s.081-.031.122-.051a5.15 5.15 0 0 0 .232-.091c-.121.051-.242.091-.364.142h.01Zm1.538-.597c.141-.041.273-.071.404-.111-.141.04-.283.07-.425.121h.021v-.01Zm1.648-.425c.091-.02.172-.03.253-.041-.091.011-.182.021-.273.041h.02Zm1.376-.172h.283-.304.021Zm1.304.01c.101 0 .192.02.294.041-.102-.011-.213-.031-.314-.041h.02Zm1.234.192c.101.021.192.061.293.081-.101-.03-.212-.06-.313-.091h.02v.01Zm1.042.314c.131.05.253.121.384.182-.141-.061-.273-.142-.414-.192h.03v.01ZM18.031 671.995c-.09-.273-.151-.567-.222-.85.07.283.131.587.222.85Zm.516 1.305c-.111-.233-.192-.485-.283-.728.091.243.182.495.283.728Zm-1.042-3.824c.051.354.091.718.152 1.052-.07-.334-.111-.688-.152-1.042v-.01Zm2.033 5.433c.142.182.273.374.415.546l-.02-.02c-.142-.162-.263-.354-.405-.526h.01Z" class="Vector"/>
    <g class="Group">
      <g class="Group">
        <path fill="#0F062D" d="M21.774 676.983 6.522 668.11c-2.73-1.588-4.43-4.967-4.44-9.773l15.252 8.873c.01 4.805 1.709 8.184 4.44 9.773Z" class="Vector"/>
        <g class="Clip path group">
          <mask id="a" width="20" height="19" x="2" y="658" class="a" maskUnits="userSpaceOnUse" style="mask-type:luminance">
            <g class="clippath-14">
              <path fill="#fff" d="M21.774 676.983 6.522 668.11c-2.73-1.588-4.43-4.967-4.44-9.773l15.252 8.873c.01 4.805 1.709 8.184 4.44 9.773Z" class="Vector"/>
            </g>
          </mask>
          <g class="Group" mask="url(#a)">
            <g class="Group">
              <path fill="#0F062D" d="M21.774 676.983 6.522 668.11c-2.73-1.588-4.43-4.967-4.44-9.773l15.252 8.873c.01 4.805 1.709 8.184 4.44 9.773Z" class="Vector"/>
            </g>
          </g>
        </g>
      </g>
      <path fill="#EEE" stroke="#0F062D" stroke-linecap="round" stroke-linejoin="round" stroke-width="2" d="M286.237 114.819c.445-.203.89-.385 1.324-.536.071-.021.142-.041.213-.071.324-.112.647-.192.971-.273.232-.061.455-.102.677-.152.243-.051.486-.081.729-.111a7.02 7.02 0 0 1 .647-.061c.232-.01.465-.02.688-.01.212 0 .414 0 .617.03.222.02.434.051.647.081.192.03.384.061.576.111.243.061.486.132.718.203.112.04.223.07.334.111.344.131.678.293.991.475l-15.251-8.872a8.297 8.297 0 0 0-.991-.476c-.112-.04-.223-.071-.334-.111-.152-.051-.304-.111-.465-.162-.081-.02-.162-.03-.243-.05a11.51 11.51 0 0 0-.577-.112c-.212-.03-.434-.06-.647-.081-.202-.02-.404-.02-.617-.03-.222 0-.455 0-.688.01-.212.01-.434.03-.647.061-.242.03-.475.06-.728.111a8.343 8.343 0 0 0-.678.152c-.121.03-.242.05-.374.081-.192.05-.394.121-.597.192-.07.02-.141.04-.212.071-.435.152-.88.334-1.325.526-.101.04-.192.091-.293.142-.465.222-.931.455-1.406.728l15.252 8.873c.475-.274.94-.506 1.405-.729.101-.05.193-.091.294-.141l-.01.02ZM17.334 667.21l-15.262-8.873L1 279.292l15.262 8.872 1.072 379.046Z" class="Vector"/>
      <path stroke="#0F062D" stroke-linecap="round" stroke-linejoin="round" stroke-width="2" d="M284.547 115.679c8.415-4.856 15.251-.961 15.282 8.71l1.072 379.046c.03 9.662-6.766 21.448-15.181 26.304L32.625 675.91c-8.414 4.857-15.261.961-15.282-8.71l-1.072-379.046c-.03-9.662 6.766-21.448 15.191-26.304l253.095-146.171h-.01Z" class="Vector"/>
      <g class="Group">
        <g class="Clip path group">
          <mask id="b" width="31" height="37" x="1" y="252" class="b" maskUnits="userSpaceOnUse" style="mask-type:luminance">
            <g class="clippath-15">
              <path fill="#fff" d="M16.261 288.164 1.01 279.292c-.03-9.662 6.766-21.449 15.19-26.305l15.252 8.873c-8.415 4.856-15.21 16.643-15.19 26.304Z" class="Vector"/>
            </g>
          </mask>
          <g class="Group" mask="url(#b)">
            <path fill="#EEE" stroke="#0F062D" stroke-linecap="round" stroke-linejoin="round" stroke-width="2" d="m20.347 273.798-15.251-8.873c2.77-5.008 6.715-9.408 11.094-11.938l15.252 8.873c-4.38 2.529-8.324 6.93-11.095 11.938Z" class="Vector"/>
          </g>
        </g>
        <path stroke="#0F062D" stroke-linecap="round" stroke-linejoin="round" stroke-width="2" d="M16.261 288.164 1.01 279.292c-.03-9.662 6.766-21.449 15.19-26.305l15.252 8.873c-8.415 4.856-15.21 16.643-15.19 26.304Z" class="Vector"/>
      </g>
    </g>
    <path stroke="#0F062D" stroke-miterlimit="10" stroke-width="2" d="M287.571 114.283c.071-.021.142-.041.213-.071.323-.112.647-.192.971-.273.232-.061.455-.112.677-.152.243-.051.486-.081.728-.111.223-.031.435-.051.648-.061.232-.01.465-.02.687-.01.213 0 .415 0 .617.03.223.02.435.051.648.081.192.03.394.061.576.111.243.061.486.132.718.203.111.04.223.07.334.111.344.131.678.293.991.475l-15.251-8.872a8.297 8.297 0 0 0-.991-.476c-.112-.04-.223-.071-.334-.111-.152-.051-.304-.111-.465-.162-.081-.02-.162-.03-.243-.05a11.51 11.51 0 0 0-.577-.112c-.212-.03-.424-.06-.647-.081-.202-.02-.404-.02-.617-.03-.222 0-.455 0-.688.01-.212.01-.435.03-.647.061-.243.03-.475.06-.728.111a8.25 8.25 0 0 0-.678.152c-.121.03-.242.05-.374.081-.192.05-.394.121-.597.192-.07.02-.141.04-.212.071-.435.152-.88.334-1.325.536-.101.04-.192.091-.293.142-.465.222-.931.455-1.406.728L16.211 252.977a22.3 22.3 0 0 0-1.588 1.012c-.172.121-.344.263-.516.394-.344.253-.687.506-1.021.779-.202.162-.395.344-.597.516-.303.263-.597.516-.89.79-.212.192-.404.404-.607.607-.273.273-.546.536-.809.819-.202.223-.404.455-.607.688-.253.283-.505.567-.748.86-.202.243-.384.496-.576.739-.233.303-.466.596-.688.91-.192.263-.364.526-.546.789l-.637.941a36.89 36.89 0 0 0-.506.83l-.577.971c-.05.091-.11.192-.172.283-.11.203-.212.415-.323.617-.162.294-.314.597-.465.891-.152.313-.294.627-.446.941-.141.303-.283.607-.414.91-.132.314-.263.637-.384.951-.122.304-.243.617-.355.921-.11.323-.222.637-.323.961-.101.313-.202.617-.293.931l-.091.283c-.071.253-.132.516-.193.769-.06.253-.131.516-.192.769-.08.374-.151.738-.212 1.113-.04.242-.091.485-.132.718-.06.405-.1.809-.141 1.214-.02.202-.05.394-.071.597a21.11 21.11 0 0 0-.07 1.77l1.071 379.046c.01 4.805 1.71 8.184 4.44 9.773l15.252 8.872c-2.731-1.588-4.43-4.967-4.44-9.773l-1.072-379.045c0-.587.02-1.174.07-1.771.02-.202.051-.404.071-.596.04-.405.081-.8.142-1.204.04-.243.09-.486.131-.729.071-.364.132-.738.213-1.103.06-.253.131-.516.192-.779.09-.354.182-.698.283-1.052.091-.313.192-.617.293-.931.101-.323.213-.637.324-.961.111-.313.233-.617.354-.92.121-.314.253-.638.384-.951.132-.304.273-.607.415-.911.142-.313.283-.627.445-.931.152-.303.303-.597.465-.9.162-.304.324-.607.486-.9.182-.334.384-.648.576-.972.172-.273.334-.556.506-.829.202-.324.425-.638.637-.941.182-.263.354-.526.546-.789.223-.314.455-.607.688-.911.192-.243.384-.496.576-.738.243-.294.496-.577.749-.87.202-.233.394-.466.606-.678.264-.284.537-.557.81-.83.202-.202.404-.415.606-.607.294-.273.597-.536.89-.789.203-.172.395-.354.597-.516.334-.273.678-.526 1.022-.779l.515-.395a20.754 20.754 0 0 1 1.588-1.011l253.095-146.171c.476-.274.941-.506 1.406-.729.101-.05.192-.091.294-.141.445-.203.889-.385 1.324-.537v.021Z" class="Vector"/>
    <path stroke="#0F062D" stroke-linecap="round" stroke-linejoin="round" stroke-width="2" d="m282.98 202.068-18.205 10.512.061 20.841 18.205-10.511.04 12.879.061 20.851.698 247.048L31.493 649.424l-1.001-352.852 252.346-145.736.142 51.232Z" class="Vector"/>
    <path fill="#fff" stroke="#0F062D" stroke-miterlimit="10" stroke-width="2" d="m313.331 184.535.061 20.842-30.351 17.532-18.205 10.512-.061-20.841 18.205-10.512 30.351-17.533Z" class="Vector"/>
    <path fill="#34D1BF" stroke="#34D1BF" stroke-linecap="round" stroke-linejoin="round" stroke-width="2" d="m313.432 218.256.061 20.851-30.351 17.523-18.215 10.521-.051-20.851 18.205-10.512 30.351-17.532Z" class="Vector"/>
    <g class="Group 1">
      <path fill="#fff" stroke="#0F062D" stroke-miterlimit="10" stroke-width="2" d="M213.893 152.616c.293-.152.587-.293.88-.435.425-.192.839-.374 1.254-.536.101-.041.212-.081.314-.122.313-.121.617-.232.92-.344.152-.05.303-.091.455-.141.253-.081.506-.162.759-.233.171-.05.333-.091.495-.131.233-.061.455-.122.678-.172.253-.061.505-.102.758-.152.162-.03.334-.071.496-.091a20.3 20.3 0 0 1 .809-.101c.141-.021.273-.041.415-.051.384-.03.758-.05 1.122-.061h.061c.394 0 .779 0 1.153.021.05 0 .101 0 .151.01.435.03.87.081 1.285.141l.354.061c.455.081.9.182 1.335.304.02 0 .05.02.071.02.414.121.809.273 1.203.435.101.04.213.091.314.131.404.182.809.375 1.193.597l-11.438-6.647a13.562 13.562 0 0 0-1.194-.597c-.101-.05-.212-.091-.313-.131a12.053 12.053 0 0 0-1.204-.435c-.02 0-.05-.02-.071-.02-.435-.122-.88-.223-1.335-.304l-.354-.061c-.424-.06-.849-.111-1.284-.141-.04 0-.071-.01-.111-.01h-.041c-.384-.021-.768-.031-1.153-.021h-.06c-.375 0-.749.031-1.123.061-.131.01-.273.031-.415.051a20.3 20.3 0 0 0-.809.101l-.495.091c-.253.051-.506.091-.759.152-.04 0-.081.02-.131.02-.182.04-.375.101-.557.142-.161.04-.333.081-.495.131-.253.071-.506.152-.759.233-.151.05-.303.091-.455.141-.303.102-.607.223-.92.344l-.324.122c-.404.162-.819.344-1.234.536h-.02c-.293.132-.586.283-.88.435-.151.071-.293.142-.445.213-.445.232-.89.475-1.335.738l-19.539 11.281 11.438 6.647 19.54-11.281c.445-.263.9-.506 1.335-.739.152-.08.293-.141.445-.212l.02.01ZM88.362 272.129s-.091-.091-.131-.142a12.822 12.822 0 0 1-.86-.961c-.06-.081-.132-.152-.192-.233a14.847 14.847 0 0 1-.84-1.193 6.043 6.043 0 0 1-.151-.263c-.233-.385-.455-.79-.658-1.204-.04-.071-.07-.142-.111-.223a19.521 19.521 0 0 1-.617-1.477c-.04-.111-.08-.233-.121-.354a18.043 18.043 0 0 1-.486-1.578c0-.031-.02-.051-.02-.081a19.395 19.395 0 0 1-.374-1.761c-.02-.131-.05-.263-.071-.394a31.909 31.909 0 0 1-.263-2.064c0-.111-.02-.233-.02-.344a34.302 34.302 0 0 1-.101-2.327c0-.415 0-.84.02-1.265.03-.849.09-1.709.172-2.579.01-.132.03-.264.04-.405.091-.86.223-1.72.364-2.59.02-.132.051-.273.071-.405a46.42 46.42 0 0 1 .607-2.822c.03-.132.06-.264.101-.395.243-.941.506-1.892.81-2.833l.15-.485a60.3 60.3 0 0 1 .598-1.751c.03-.091.06-.172.09-.263.243-.657.506-1.325.77-1.973.07-.172.151-.354.222-.526.212-.516.445-1.032.677-1.537.081-.172.152-.334.233-.506a48.58 48.58 0 0 1 .94-1.933c.061-.111.122-.222.183-.344.263-.505.526-1.001.799-1.497.1-.192.212-.384.323-.567.253-.445.506-.89.769-1.335.101-.162.192-.334.293-.496.354-.586.728-1.173 1.103-1.75.05-.081.11-.172.172-.253a37.44 37.44 0 0 1 1-1.457c.122-.172.254-.354.375-.526.293-.404.597-.809.9-1.214.121-.162.243-.313.364-.475.415-.537.84-1.073 1.275-1.589.04-.04.07-.081.11-.131.395-.476.8-.941 1.214-1.407.142-.151.274-.303.415-.455.334-.364.668-.718 1.001-1.072.142-.142.273-.283.415-.425.475-.486.951-.951 1.446-1.406.041-.041.081-.071.122-.112.455-.425.91-.829 1.375-1.224.152-.131.293-.253.445-.374.384-.324.779-.638 1.173-.951.132-.101.263-.213.405-.314a41.011 41.011 0 0 1 1.557-1.133c.061-.04.112-.071.172-.111a37.842 37.842 0 0 1 2.377-1.508l19.54-11.28-11.439-6.647-19.54 11.28a37.75 37.75 0 0 0-2.376 1.508.67.67 0 0 0-.112.071c-.02.01-.04.03-.06.04-.526.364-1.042.739-1.558 1.133-.131.101-.263.213-.404.314-.395.303-.78.627-1.174.951-.151.121-.293.253-.444.374-.466.395-.92.799-1.366 1.224-.04.041-.08.071-.121.112-.486.455-.971.93-1.447 1.406l-.151.152c-.091.091-.172.192-.263.283l-1.001 1.062c-.142.152-.284.304-.415.456-.404.455-.81.92-1.204 1.396-.04.05-.08.091-.12.141-.436.516-.86 1.053-1.275 1.589-.122.162-.243.313-.364.475-.304.405-.607.799-.9 1.214l-.375.526c-.333.476-.667.961-.99 1.447-.061.091-.122.172-.173.263a105.95 105.95 0 0 0-1.102 1.74 12.61 12.61 0 0 0-.293.496c-.263.435-.516.88-.77 1.325-.11.193-.212.385-.323.567-.273.496-.536.991-.799 1.497-.05.091-.1.182-.141.273-.01.021-.02.051-.03.071a68.348 68.348 0 0 0-.941 1.933c-.081.172-.152.333-.233.505a41.459 41.459 0 0 0-.667 1.538c-.071.172-.152.354-.223.526a53.63 53.63 0 0 0-.768 1.973c-.03.091-.061.172-.091.263-.213.577-.405 1.164-.597 1.75-.03.091-.071.183-.101.284-.02.071-.04.131-.061.202a59.479 59.479 0 0 0-.81 2.833c-.03.131-.07.263-.1.394a48.477 48.477 0 0 0-.607 2.823c-.01.071-.03.132-.04.202a9.47 9.47 0 0 1-.03.203c-.153.87-.274 1.73-.365 2.59-.01.131-.03.273-.04.404-.091.87-.152 1.73-.172 2.58v.132c-.01.374-.02.758-.01 1.133 0 .799.04 1.568.1 2.327 0 .111.01.232.02.344.062.708.153 1.396.264 2.064 0 .06.01.131.02.182.01.071.03.141.04.212.112.607.233 1.194.375 1.761 0 .03.02.05.02.08.141.547.313 1.073.485 1.579.04.121.081.232.122.354.192.506.394 1.001.617 1.477.04.071.07.142.111.223.202.414.425.819.657 1.203.051.081.102.172.152.264.263.414.546.819.84 1.193.06.081.131.152.192.233.273.334.566.658.86.961.04.051.09.091.13.142.334.324.688.627 1.053.91l.252.193c.375.283.759.546 1.164.779l11.438 6.646a10.885 10.885 0 0 1-1.163-.779c-.08-.06-.172-.121-.253-.192a12.887 12.887 0 0 1-1.052-.91l-.03.02Z" class="Vector"/>
      <g class="Group">
        <path fill="#EEE" stroke="#0F062D" stroke-linecap="round" stroke-linejoin="round" stroke-width="2" d="M220.417 150.36c.161-.03.333-.071.495-.091.273-.041.546-.071.809-.101.132-.021.273-.041.405-.051.384-.03.758-.051 1.122-.061h.061c.395 0 .779 0 1.153.021.051 0 .101 0 .142.01.434.03.869.081 1.284.141l.354.061c.455.081.9.182 1.335.304.02 0 .051.02.071.02.414.121.819.273 1.203.435.102.04.213.091.314.131.404.182.809.375 1.193.597l-11.438-6.647a13.562 13.562 0 0 0-1.194-.597c-.101-.05-.212-.091-.313-.131a12.053 12.053 0 0 0-1.204-.435c-.03 0-.05-.02-.071-.02a13.937 13.937 0 0 0-1.335-.304l-.354-.061c-.424-.06-.849-.111-1.284-.141-.04 0-.071-.01-.111-.01h-.041a14.3 14.3 0 0 0-1.153-.021h-.07c-.375 0-.749.031-1.123.061-.131.01-.273.031-.415.051-.263.03-.536.06-.809.101l-.495.091c-.253.051-.496.091-.749.152-.04 0-.081.02-.131.03-2.357.546-4.845 1.548-7.434 3.035l11.439 6.647c2.629-1.517 5.158-2.519 7.545-3.055.252-.061.505-.101.758-.152l.041-.01Z" class="Vector"/>
        <path fill="#fff" d="m155.294 185.921-11.438-6.646c1.294.748 3.084.647 5.067-.496l11.438 6.647c-1.982 1.143-3.772 1.254-5.067.495Z" class="Vector"/>
        <g class="Clip path group">
          <mask id="c" width="18" height="9" x="143" y="178" class="c" maskUnits="userSpaceOnUse" style="mask-type:luminance">
            <g class="clippath-16">
              <path fill="#fff" d="m155.294 185.921-11.438-6.646c1.294.748 3.084.647 5.067-.496l11.438 6.647c-1.982 1.143-3.772 1.254-5.067.495Z" class="Vector"/>
            </g>
          </mask>
          <g class="Group" mask="url(#c)">
            <g class="Group">
              <path fill="#fff" d="m155.294 185.922-11.438-6.647a3.51 3.51 0 0 0 1.628.475l11.439 6.647a3.518 3.518 0 0 1-1.629-.475Z" class="Vector"/>
              <path fill="#fff" d="m156.923 186.397-11.439-6.647c.435.02.9-.02 1.375-.131l11.439 6.647a5.118 5.118 0 0 1-1.375.131Zm1.385-.132-11.438-6.646a7.571 7.571 0 0 0 1.314-.456l11.439 6.647c-.455.203-.89.354-1.315.455Zm1.315-.455-11.438-6.647c.242-.111.495-.243.748-.384l11.439 6.647a8.85 8.85 0 0 1-.749.384Z" class="Vector"/>
            </g>
          </g>
        </g>
        <g class="Group">
          <g class="Clip path group">
            <mask id="d" width="20" height="25" x="148" y="161" class="d" maskUnits="userSpaceOnUse" style="mask-type:luminance">
              <g class="clippath-17">
                <path fill="#fff" d="m153.939 161.893 11.439 6.647c1.284.749 2.073 2.327 2.083 4.583.01 4.523-3.165 10.026-7.099 12.303l-11.439-6.647c3.934-2.277 7.11-7.78 7.1-12.303 0-2.256-.799-3.834-2.084-4.583Z" class="Vector"/>
              </g>
            </mask>
            <g class="Group" mask="url(#d)">
              <g class="Group">
                <path fill="#fff" d="m160.362 185.426-11.439-6.647a9.93 9.93 0 0 0 .688-.435l11.438 6.647c-.222.151-.455.303-.687.435Zm.697-.435-11.438-6.647a12.922 12.922 0 0 0 1.861-1.579l11.438 6.647a12.815 12.815 0 0 1-1.861 1.579Z" class="Vector"/>
                <path fill="#fff" d="m162.92 183.412-11.438-6.646c1.142-1.164 2.144-2.58 2.912-4.088l11.439 6.647c-.769 1.508-1.77 2.924-2.913 4.087Z" class="Vector"/>
                <path fill="#EEE" stroke="#0F062D" stroke-linecap="round" stroke-linejoin="round" stroke-width="2" d="M167.35 171.747c-.263-1.527-.961-2.63-1.972-3.207l-11.439-6.647c1.002.587 1.71 1.68 1.973 3.207.07.425.111.881.111 1.366v.314c-.02.536-.071 1.082-.172 1.639a12.87 12.87 0 0 1-.445 1.791 16.519 16.519 0 0 1-1.011 2.448l11.438 6.647a16.38 16.38 0 0 0 1.011-2.449c.193-.596.344-1.193.445-1.79.102-.557.162-1.103.172-1.639v-.314c0-.486-.04-.941-.111-1.366Z" class="Vector"/>
              </g>
            </g>
          </g>
        </g>
        <path fill="#EEE" stroke="#0F062D" stroke-linecap="round" stroke-linejoin="round" stroke-width="2" d="M101.318 218.872s.081-.07.111-.101c.455-.425.91-.829 1.376-1.224.151-.131.303-.253.444-.384.385-.324.769-.638 1.164-.941.131-.101.273-.213.404-.324a39.97 39.97 0 0 1 1.558-1.133 38.422 38.422 0 0 1 2.548-1.619l19.54-11.28-11.439-6.647-19.54 11.28a36.551 36.551 0 0 0-2.487 1.579s-.04.03-.061.04c-.526.364-1.042.739-1.558 1.133-.141.101-.272.213-.404.324-.394.303-.779.617-1.163.941-.152.121-.293.253-.445.374-.465.395-.92.809-1.376 1.224-.04.031-.07.071-.11.101-.486.456-.972.931-1.447 1.407l-.152.151c-9.628 9.824-16.445 24.514-16.404 37.1.02 8.103 2.882 13.799 7.494 16.48l11.439 6.657c-4.612-2.681-7.474-8.387-7.495-16.48-.04-12.647 6.847-27.418 16.556-37.241.476-.486.961-.951 1.447-1.417Z" class="Vector"/>
        <path fill="#2C4BF3" stroke="#0F062D" stroke-linecap="round" stroke-linejoin="round" stroke-width="2" d="M212.113 153.567c14.19-8.195 25.729-1.619 25.78 14.69.05 16.309-11.418 36.179-25.608 44.373l-103.18 59.59c-14.19 8.195-25.729 1.608-25.78-14.69-.05-16.319 11.419-36.169 25.608-44.374l19.54-11.28c.637-20.062 14.675-43.898 31.949-53.883 17.284-9.986 31.403-2.408 32.162 16.855l19.539-11.281h-.01Zm-51.741 31.859c3.934-2.277 7.109-7.78 7.099-12.303-.01-4.532-3.206-6.353-7.15-4.087-3.944 2.266-7.11 7.78-7.1 12.312.01 4.523 3.206 6.354 7.151 4.078Z" class="Vector"/>
      </g>
      <path fill="#fff" stroke="#0F062D" stroke-linecap="round" stroke-linejoin="round" stroke-width="2" d="M171.8 139.11c-2.164-1.255-4.632-1.983-7.342-2.135-1.962-.111-4.046.081-6.22.587-1.902.445-3.884 1.123-5.917 2.054a42.116 42.116 0 0 0-3.347 1.73 48.117 48.117 0 0 0-3.105 1.962c-2.923 2.014-5.725 4.411-8.364 7.103-5.148 5.25-9.649 11.614-13.118 18.402a75.07 75.07 0 0 0-4.591 11.109 61.762 61.762 0 0 0-2.003 8.043 51.889 51.889 0 0 0-.779 7.264l11.439 6.647c.071-2.377.344-4.806.779-7.264a62.323 62.323 0 0 1 2.002-8.043 72.942 72.942 0 0 1 4.592-11.109c3.469-6.788 7.969-13.152 13.117-18.403 2.64-2.691 5.442-5.088 8.364-7.102a44.361 44.361 0 0 1 3.105-1.962 36.263 36.263 0 0 1 3.348-1.73c2.033-.931 4.015-1.609 5.916-2.054 2.175-.506 4.258-.698 6.22-.587 2.711.152 5.179.88 7.343 2.135L171.8 139.11Z" class="Vector"/>
    </g>
    <g class="Group">
      <path fill="#fff" stroke="#0F062D" stroke-miterlimit="10" stroke-width="2" d="m128.473 201.876-11.438-6.647c.07-2.378.343-4.806.778-7.264l11.439 6.647a51.857 51.857 0 0 0-.779 7.264Z" class="Vector"/>
      <path fill="#EEE" stroke="#0F062D" stroke-linecap="round" stroke-linejoin="round" stroke-width="2" d="m129.242 194.612-11.439-6.647a62.329 62.329 0 0 1 2.003-8.043l11.439 6.647a61.762 61.762 0 0 0-2.003 8.043Z" class="Vector"/>
    </g>
    <g class="Clip path group">
      <mask id="e" width="300" height="574" x="1" y="104" class="e" maskUnits="userSpaceOnUse" style="mask-type:luminance">
        <g class="clippath-19">
          <path fill="#fff" d="M299.829 124.389c-.01-4.815-1.719-8.204-4.47-9.783 0 0 .02 0 .03.01l-15.251-8.872a8.297 8.297 0 0 0-.991-.476c-.112-.04-.223-.071-.334-.111-.152-.051-.304-.111-.465-.162-.081-.02-.162-.03-.243-.05a11.51 11.51 0 0 0-.577-.112c-.212-.03-.424-.06-.647-.081-.202-.02-.404-.02-.617-.03-.222 0-.455 0-.688.01-.212.01-.434.03-.647.061-.243.03-.475.06-.728.111a8.343 8.343 0 0 0-.678.152c-.121.03-.242.05-.374.081-.172.05-.344.101-.516.162-.03 0-.06.02-.081.03-.07.02-.141.04-.212.071-.435.152-.88.334-1.325.536-.101.04-.192.091-.293.142-.465.222-.93.455-1.406.728L16.221 252.977s-.01 0-.02.01c-.526.304-1.052.648-1.568 1.002-.172.121-.344.263-.516.384-.344.253-.677.496-1.011.769-.202.162-.394.344-.597.516-.303.263-.596.516-.89.789-.212.193-.404.405-.607.607-.273.274-.546.537-.809.82-.202.222-.404.455-.606.678-.253.283-.506.566-.749.86-.202.242-.384.495-.576.738-.233.294-.466.597-.688.901-.192.263-.364.526-.546.789a767.8 767.8 0 0 0-.637.941c-.172.273-.344.556-.506.829l-.577.971c-.05.092-.11.193-.171.284-.112.202-.213.414-.324.617-.202.374-.395.748-.577 1.133-.11.233-.222.465-.323.698-.425.921-.81 1.851-1.143 2.782 0 0-.01.031-.02.051a32.443 32.443 0 0 0-.597 1.841c-.03.091-.06.192-.091.283-.07.253-.132.516-.192.769a26.322 26.322 0 0 0-.637 3.42c-.01.131-.03.263-.05.394-.082.8-.142 1.589-.142 2.368l1.072 379.045c.01 4.806 1.709 8.185 4.44 9.773l15.251 8.873c-.172-.101-.334-.233-.496-.344 2.802 1.952 6.837 1.882 11.338-.718L285.75 529.678c8.415-4.856 15.211-16.632 15.181-26.304l-1.073-379.045-.03.06Zm-13.583-9.57s.081-.031.122-.051a5.15 5.15 0 0 0 .232-.091c-.121.051-.242.091-.364.142h.01Zm1.538-.597c.141-.041.273-.071.404-.111-.141.04-.283.07-.424.121h.02v-.01Zm1.648-.425c.091-.02.172-.03.253-.041-.091.011-.182.021-.273.041h.02Zm1.376-.172h.283-.303.02Zm1.304.01c.101 0 .193.02.294.041-.101-.011-.213-.031-.314-.041h.02Zm1.234.192c.101.021.192.061.294.081-.102-.03-.213-.06-.314-.091h.02v.01Zm1.042.314c.131.05.253.121.384.182-.141-.061-.273-.142-.414-.192h.03v.01ZM18.031 671.995c-.09-.273-.151-.567-.222-.85.07.283.131.587.222.85Zm.516 1.305c-.111-.233-.192-.485-.283-.728.091.243.182.495.283.728Zm-1.041-3.824c.05.354.09.718.151 1.052-.07-.334-.111-.688-.151-1.042v-.01Zm2.032 5.433c.142.182.273.374.415.546l-.02-.02c-.142-.162-.263-.354-.405-.526h.01Z" class="Vector"/>
        </g>
      </mask>
      <g class="Group" mask="url(#e)">
        <path fill="#2C4BF3" d="M195.275 483.373c0-21.793-13.947-60.966-13.947-60.966L85.633 246.623c1.466-5.716-3.429-12.484-3.429-12.484L69.319 211.77c1.467-3.703-.576-9.216-.576-9.216s-46.26-79.328-49.436-84.711c-3.186-5.382.637-8.862 4.895-16.652 4.733-8.65 0-17.624 0-17.624l-11.995-20.81S1.76 42.187-14.23 43.411c-5.26.405-8.617 2.246-10.73 4.695l-9.335-16.208s.343 11.341-10.59 21.954c10.59-10.38 10.59-21.954 10.59-21.954s-8.729-8.346-21.735-7.618L-72.232 3.248s-7.1-2.934-14.928 1.224c-7.828 4.158-9.052 13.708-9.052 13.708l11.045 24.464c-6.524 11.088-1.993 20.578-1.993 20.578s17.133 7.587 35.004-3.673c-18.357 11.756-35.004 3.673-35.004 3.673l84.52 147.88s30.513 53.702 33.608 58.76c3.105 5.059 7.18 5.383 7.18 5.383l103.777 172.364c20.066 26.274 45.492 41.176 45.492 41.176l10.983 8.529-3.125-13.951v.01ZM67.023 266.938c-.07.041-.131.081-.202.122.091-.061.182-.111.273-.172-.03.02-.05.03-.08.05h.01Zm-1 .618c-.355.212-.699.414-1.053.617.344-.203.698-.405 1.052-.617Zm-4.127 2.256c-.213.101-.435.212-.648.313.213-.101.435-.202.648-.313Zm2.902-1.538a73.74 73.74 0 0 1-1.254.688c.415-.223.83-.455 1.254-.688Zm-1.365.749c-.364.192-.738.384-1.102.566.364-.182.728-.374 1.102-.566Z" class="pen-shadow" opacity=".1"/>
      </g>
    </g>
    <g class="row">
      <g class="line-group">
        <mask id="f" width="142" height="87" x="114" y="260" class="f" maskUnits="userSpaceOnUse" style="mask-type:alpha">
          <path stroke="#11082F" stroke-linecap="square" stroke-width="6" d="m118.411 341.964 132.561-77.037" class="line-group-mask"/>
        </mask>
        <g mask="url(#f)">
          <path fill="#0F062D" fill-rule="evenodd" d="m120.154 343.495 130.314-75.26.005-.003c.656-.383 1.181-.981 1.54-1.603.358-.622.613-1.377.613-2.138 0-.755-.274-1.626-1.085-2.09-.808-.464-1.696-.262-2.347.117l-.003.001-130.31 75.258c-.656.38-1.182.981-1.541 1.602-.358.62-.618 1.378-.618 2.143 0 .764.283 1.63 1.095 2.089.804.455 1.687.26 2.337-.116Z" class="line" clip-rule="evenodd"/>
        </g>
      </g>
      <g class="line-group">
        <mask id="g" width="142" height="87" x="114" y="270" class="g" maskUnits="userSpaceOnUse" style="mask-type:alpha">
          <path stroke="#11082F" stroke-linecap="square" stroke-width="6" d="m118.411 352.068 132.561-77.038" class="line-group-mask"/>
        </mask>
        <g mask="url(#g)">
          <path fill="#0F062D" fill-rule="evenodd" d="m120.154 353.598 130.314-75.26.005-.003c.656-.383 1.181-.981 1.54-1.603.358-.621.613-1.376.613-2.138 0-.755-.274-1.626-1.085-2.09-.808-.463-1.696-.262-2.347.117l-.003.002-130.31 75.258c-.656.379-1.182.981-1.541 1.601-.358.62-.618 1.378-.618 2.143 0 .764.283 1.63 1.095 2.089.804.455 1.687.26 2.337-.116Z" class="line" clip-rule="evenodd"/>
        </g>
      </g>
      <g class="line-group">
        <mask id="h" width="90" height="56" x="114" y="311" class="h" maskUnits="userSpaceOnUse" style="mask-type:alpha">
          <path stroke="#11082F" stroke-linecap="square" stroke-width="6" d="m118.411 362.171 80.799-46.728" class="line-group-mask"/>
        </mask>
        <g mask="url(#h)">
          <path fill="#0F062D" fill-rule="evenodd" d="m120.117 364.581 77.2-44.718.005-.003c.656-.383 1.181-.981 1.539-1.603.359-.621.614-1.376.614-2.138 0-.755-.274-1.625-1.085-2.09-.809-.463-1.696-.262-2.348.117l-.003.002-77.195 44.715c-.656.38-1.182.981-1.541 1.601-.358.621-.618 1.379-.618 2.143 0 .764.283 1.631 1.095 2.09.804.455 1.687.26 2.337-.116Z" class="line" clip-rule="evenodd"/>
        </g>
      </g>
      <g class="check-mark">
        <path stroke="#0F062D" stroke-linecap="round" stroke-linejoin="round" stroke-width="2" d="m98.06 382.233-.1-37.372-32.516 18.777.101 37.372 32.516-18.777Z" class="unchecked"/>
        <path fill="#34D1BF" stroke="#34D1BF" stroke-linecap="round" stroke-linejoin="round" stroke-width="2" d="m98.06 382.233-.1-37.372-32.516 18.777.101 37.372 32.516-18.777Z" class="checked"/>
        <path fill="#fff" d="M90.607 355.615c.263-.152.526-.223.769-.202.738.07.98 1.001.566 2.094L81.414 384.57c-.243.627-.668 1.194-1.153 1.528-.06.04-.121.081-.172.111-.425.243-.83.273-1.123.081l-7.08-4.715c-.576-.384-.545-1.517.082-2.549.293-.486.667-.85 1.031-1.063.415-.242.83-.283 1.133-.091l5.664 3.774 9.486-24.392c.284-.739.8-1.346 1.325-1.649v.01Z" class="Vector"/>
      </g>
    </g>
    <g class="row">
      <g class="line-group">
        <mask id="i" width="142" height="86" x="114" y="321" class="i" maskUnits="userSpaceOnUse" style="mask-type:alpha">
          <path stroke="#11082F" stroke-linecap="square" stroke-width="6" d="m118.411 402.584 132.561-77.038" class="line-group-mask"/>
        </mask>
        <g mask="url(#i)">
          <path fill="#0F062D" fill-rule="evenodd" d="m120.154 404.115 130.314-75.261.005-.003c.656-.383 1.181-.981 1.54-1.603.358-.621.613-1.376.613-2.138 0-.755-.274-1.625-1.085-2.09-.808-.463-1.696-.262-2.347.117l-.003.002-130.31 75.258c-.656.379-1.182.981-1.541 1.601-.358.621-.618 1.378-.618 2.143 0 .764.283 1.63 1.095 2.09.804.455 1.687.259 2.337-.116Z" class="line" clip-rule="evenodd"/>
        </g>
      </g>
      <g class="line-group">
        <mask id="j" width="113" height="68" x="114" y="349" class="j" maskUnits="userSpaceOnUse" style="mask-type:alpha">
          <path stroke="#11082F" stroke-linecap="square" stroke-width="6" d="m118.411 412.687 103.524-59.357" class="line-group-mask"/>
        </mask>
        <g mask="url(#j)">
          <path fill="#0F062D" fill-rule="evenodd" d="m120.154 414.218 101.793-58.328.005-.003c.656-.383 1.181-.981 1.539-1.603.359-.621.614-1.376.614-2.138 0-.755-.274-1.626-1.085-2.09-.809-.463-1.696-.262-2.347.117l-.004.002L118.881 408.5c-.656.38-1.182.981-1.541 1.601-.358.621-.618 1.379-.618 2.143 0 .764.283 1.631 1.095 2.09.804.455 1.687.26 2.337-.116Z" class="line" clip-rule="evenodd"/>
        </g>
      </g>
      <g class="line-group">
        <mask id="k" width="54" height="35" x="114" y="392" class="k" maskUnits="userSpaceOnUse" style="mask-type:alpha">
          <path stroke="#11082F" stroke-linecap="square" stroke-width="6" d="m118.411 422.79 45.45-26.521" class="line-group-mask"/>
        </mask>
        <g mask="url(#k)">
          <path fill="#0F062D" fill-rule="evenodd" d="m120.117 425.2 43.933-25.622.005-.003c.656-.383 1.181-.981 1.54-1.603.358-.622.613-1.377.613-2.139 0-.755-.274-1.625-1.085-2.09-.809-.463-1.696-.262-2.347.117l-.004.002-43.928 25.62c-.656.38-1.182.981-1.541 1.602-.358.62-.618 1.378-.618 2.143 0 .763.283 1.63 1.095 2.089.804.455 1.687.26 2.337-.116Z" class="line" clip-rule="evenodd"/>
        </g>
      </g>
      <g class="check-mark">
        <path stroke="#0F062D" stroke-linecap="round" stroke-linejoin="round" stroke-width="2" d="m98.06 442.763-.1-37.373-32.516 18.777.101 37.373 32.516-18.777Z" class="unchecked"/>
        <path fill="#34D1BF" stroke="#34D1BF" stroke-linecap="round" stroke-linejoin="round" stroke-width="2" d="m98.06 442.763-.1-37.373-32.516 18.777.101 37.373 32.516-18.777Z" class="checked"/>
        <path fill="#fff" d="M90.607 416.144c.263-.151.526-.222.769-.202.738.071.98 1.002.566 2.094l-10.528 27.063c-.243.628-.668 1.194-1.153 1.528-.06.041-.121.081-.172.111-.425.243-.83.274-1.123.081l-7.08-4.714c-.576-.385-.545-1.518.082-2.55.293-.485.667-.85 1.031-1.062.415-.243.83-.283 1.133-.091l5.664 3.774 9.486-24.393c.284-.738.8-1.345 1.325-1.649v.01Z" class="Vector"/>
      </g>
    </g>
    <g class="row">
      <g class="line-group">
        <mask id="l" width="142" height="86" x="114" y="382" class="l" maskUnits="userSpaceOnUse" style="mask-type:alpha">
          <path stroke="#11082F" stroke-linecap="square" stroke-width="6" d="m118.411 463.203 132.561-77.037" class="line-group-mask"/>
        </mask>
        <g mask="url(#l)">
          <path fill="#0F062D" fill-rule="evenodd" d="m120.154 464.734 130.314-75.26.005-.003c.656-.383 1.181-.981 1.54-1.603.358-.622.613-1.377.613-2.138 0-.755-.274-1.626-1.085-2.09-.808-.464-1.696-.262-2.347.117l-.003.001-130.31 75.258c-.656.38-1.182.981-1.541 1.602-.358.62-.618 1.378-.618 2.143 0 .764.283 1.63 1.095 2.089.804.455 1.687.26 2.337-.116Z" class="line" clip-rule="evenodd"/>
        </g>
      </g>
      <g class="line-group">
        <mask id="m" width="142" height="86" x="114" y="392" class="m" maskUnits="userSpaceOnUse" style="mask-type:alpha">
          <path stroke="#11082F" stroke-linecap="square" stroke-width="6" d="m118.411 473.307 132.561-77.038" class="line-group-mask"/>
        </mask>
        <g mask="url(#m)">
          <path fill="#0F062D" fill-rule="evenodd" d="m120.154 474.837 130.314-75.26.005-.003c.656-.383 1.181-.981 1.54-1.603.358-.621.613-1.376.613-2.138 0-.755-.274-1.626-1.085-2.09-.808-.463-1.696-.262-2.347.117l-.003.002-130.31 75.258c-.656.379-1.182.981-1.541 1.601-.358.621-.618 1.378-.618 2.143 0 .764.283 1.63 1.095 2.09.804.454 1.687.259 2.337-.117Z" class="line" clip-rule="evenodd"/>
        </g>
      </g>
      <g class="line-group">
        <mask id="n" width="121" height="75" x="114" y="413" class="n" maskUnits="userSpaceOnUse" style="mask-type:alpha">
          <path stroke="#11082F" stroke-linecap="square" stroke-width="6" d="m118.411 483.41 112.362-65.671" class="line-group-mask"/>
        </mask>
        <g mask="url(#n)">
          <path fill="#0F062D" fill-rule="evenodd" d="m120.117 485.82 108.497-63.074.005-.003c.656-.383 1.181-.981 1.54-1.603.358-.621.614-2.138.614-2.138s-.275-1.625-1.086-2.09c-.808-.463-1.696-.262-2.347.117l-.003.002-108.493 63.071c-.656.38-1.182.981-1.541 1.602-.358.62-.618 1.378-.618 2.143 0 .763.283 1.63 1.095 2.089.804.455 1.687.26 2.337-.116Z" class="line" clip-rule="evenodd"/>
        </g>
      </g>
      <g class="check-mark">
        <path stroke="#0F062D" stroke-linecap="round" stroke-linejoin="round" stroke-width="2" d="m98.06 503.465-.1-37.372-32.516 18.777.101 37.373 32.516-18.778Z" class="unchecked"/>
        <path fill="#34D1BF" stroke="#34D1BF" stroke-linecap="round" stroke-linejoin="round" stroke-width="2" d="m98.06 503.465-.1-37.372-32.516 18.777.101 37.373 32.516-18.778Z" class="checked"/>
        <path fill="#fff" d="M90.607 476.847c.263-.151.526-.222.769-.202.738.071.98 1.002.566 2.094l-10.528 27.063c-.243.628-.668 1.194-1.153 1.528-.06.04-.121.081-.172.111-.425.243-.83.273-1.123.081l-7.08-4.714c-.576-.385-.545-1.518.082-2.55.293-.485.667-.85 1.031-1.062.415-.243.83-.283 1.133-.091l5.664 3.774 9.486-24.393c.284-.738.8-1.345 1.325-1.649v.01Z" class="Vector"/>
      </g>
    </g>
    <g class="row">
      <g class="line-group">
        <mask id="o" width="142" height="86" x="114" y="442" class="o" maskUnits="userSpaceOnUse" style="mask-type:alpha">
          <path stroke="#11082F" stroke-linecap="square" stroke-width="6" d="m118.411 523.823 132.561-77.038" class="line-group-mask"/>
        </mask>
        <g mask="url(#o)">
          <path fill="#0F062D" fill-rule="evenodd" d="m120.154 525.354 130.314-75.26.005-.003c.656-.383 1.181-.982 1.54-1.603.358-.622.613-1.377.613-2.139 0-.755-.274-1.625-1.085-2.09-.808-.463-1.696-.262-2.347.117l-.004.002-130.309 75.258c-.657.38-1.182.981-1.541 1.601-.358.621-.618 1.379-.618 2.143 0 .764.283 1.631 1.095 2.09.804.455 1.687.259 2.337-.116Z" class="line" clip-rule="evenodd"/>
        </g>
      </g>
      <g class="line-group">
        <mask id="p" width="114" height="70" x="114" y="469" class="p" maskUnits="userSpaceOnUse" style="mask-type:alpha">
          <path stroke="#11082F" stroke-linecap="square" stroke-width="6" d="m118.411 533.926 104.787-60.619" class="line-group-mask"/>
        </mask>
        <g mask="url(#p)">
          <path fill="#0F062D" fill-rule="evenodd" d="m120.154 535.457 102.13-58.65.005-.003c.656-.383 1.181-.981 1.54-1.603.358-.621.614-1.376.614-2.138 0-.755-.275-1.625-1.085-2.09-.809-.463-1.697-.262-2.348.117l-.003.002-102.126 58.647c-.657.38-1.182.981-1.541 1.602-.358.62-.618 1.378-.618 2.143 0 .763.283 1.63 1.095 2.089.804.455 1.687.26 2.337-.116Z" class="line" clip-rule="evenodd"/>
        </g>
      </g>
      <g class="line-group">
        <mask id="q" width="91" height="58" x="114" y="491" class="q" maskUnits="userSpaceOnUse" style="mask-type:alpha">
          <path stroke="#11082F" stroke-linecap="square" stroke-width="6" d="m118.411 544.03 82.062-47.991" class="line-group-mask"/>
        </mask>
        <g mask="url(#q)">
          <path fill="#0F062D" fill-rule="evenodd" d="m120.117 546.44 78.02-45.198.005-.003c.656-.383 1.181-.981 1.54-1.603.358-.622.613-1.377.613-2.139 0-.755-.274-1.625-1.085-2.09-.808-.463-1.696-.262-2.347.117l-.003.002-78.016 45.196c-.657.379-1.182.981-1.541 1.601-.358.621-.618 1.378-.618 2.143 0 .764.283 1.63 1.095 2.09.804.455 1.687.259 2.337-.116Z" class="line" clip-rule="evenodd"/>
        </g>
      </g>
      <g class="check-mark">
        <path stroke="#0F062D" stroke-linecap="round" stroke-linejoin="round" stroke-width="2" d="m98.577 564.067-.111-37.372-32.506 18.777.101 37.372 32.516-18.777Z" class="unchecked"/>
        <path fill="#34D1BF" stroke="#34D1BF" stroke-linecap="round" stroke-linejoin="round" stroke-width="2" d="m98.577 564.067-.111-37.372-32.506 18.777.101 37.372 32.516-18.777Z" class="checked"/>
        <path fill="#fff" d="M91.113 537.449c.263-.152.525-.223.768-.202.739.07.981 1.001.567 2.094l-10.529 27.063c-.242.627-.667 1.194-1.153 1.528-.06.04-.121.081-.172.111-.424.243-.829.273-1.122.081l-7.08-4.715c-.576-.384-.546-1.517.081-2.549.293-.486.668-.85 1.032-1.062.414-.243.83-.284 1.133-.092l5.663 3.774 9.487-24.392c.283-.739.799-1.346 1.325-1.649v.01Z" class="Vector"/>
      </g>
    </g>
    <g class="pen">
      <path fill="#fff" fill-opacity=".01" d="M199.21 496.67a.631.631 0 1 1-1.262.002.631.631 0 0 1 1.262-.002Z" class="pen-origin"/>
      <path fill="#fff" stroke="#0F062D" stroke-linecap="round" stroke-linejoin="round" stroke-width="2" d="m255.863 446.366 103.776-172.364s-14.199.981-28.884-8.327c-14.685-9.307-18.599-20.325-18.599-20.325L216.46 421.134s-13.947 39.173-13.947 60.965l7.859 5.433s25.425-14.892 45.491-41.176v.01Z" class="Vector"/>
      <path stroke="#0F062D" stroke-linecap="round" stroke-linejoin="round" stroke-width="2" d="M216.46 421.144s3.307 10.937 15.049 17.503c11.742 6.566 24.354 7.709 24.354 7.709m64.282-189.29-98.921 172.688m21.39 13.678 103.008-171.221" class="Vector"/>
      <path fill="#fff" stroke="#0F062D" stroke-linecap="round" stroke-linejoin="round" stroke-width="2" d="M359.63 274.002s4.075-.324 7.18-5.382c3.105-5.059 33.608-58.76 33.608-58.76l84.52-147.881s-16.647 8.083-35.003-3.673c-18.357-11.756-17.871-27.67-17.871-27.67l-116.5 202.23s-4.895 6.778-3.428 12.484c0 0 3.641 11.271 19.367 20.791 14.979 9.075 28.116 7.851 28.116 7.851l.011.01Z" class="Vector"/>
      <path fill="#2C4BF3" stroke="#0F062D" stroke-linecap="round" stroke-linejoin="round" stroke-width="2" d="M484.948 61.979s8.324-17.381-13.704-32.567c-22.027-15.176-39.16 1.224-39.16 1.224s0 16.4 17.871 27.67c17.871 11.26 35.004 3.673 35.004 3.673h-.011Z" class="Vector"/>
      <path fill="#fff" stroke="#0F062D" stroke-linecap="round" stroke-linejoin="round" stroke-width="2" d="m494 16.938-13.704 30.361s-11.995 5.878-22.028 0c-10.032-5.878-8.809-18.605-8.809-18.605l20.562-26.689s7.099-2.934 14.927 1.224C492.776 7.387 494 16.938 494 16.938Z" class="Vector"/>
      <path fill="#0F062D" stroke="#0F062D" stroke-linecap="round" stroke-linejoin="round" stroke-width="2" d="m210.372 487.542-10.984 8.519 3.115-13.951 7.869 5.432Z" class="Vector"/>
      <path fill="#EEE" stroke="#0F062D" stroke-linecap="round" stroke-linejoin="round" stroke-width="2" d="m454.293 84.6-35.327 64.234 26.256-5.625 26.447-37.454-17.376-21.154Z" class="Vector"/>
      <path fill="#fff" stroke="#0F062D" stroke-linecap="round" stroke-linejoin="round" stroke-width="2" d="M454.294 84.6s14.23-14.477 24.971.84c9.213 13.132-3.146 32.608-3.146 32.608l-11.772 20.932s-5.3 8.65-15.16 8.994c-8.87.313-13.806-1.204-16.809 4.279-3.004 5.484-47.606 85.752-47.606 85.752s-5.744 7.113-10.518 4.816c-4.774-2.286-3.641-10.936-3.641-10.936l48.344-83.061s4.389-8.65 14.867-7.871c7.818.576 13.259-3.723 14.412-6.111 1.153-2.388 14.29-27.245 14.29-27.245s5.593-10.724-8.242-23.006l.01.01Z" class="Vector"/>
      <path fill="#0F062D" d="M346.391 272.474 242.614 443.432l12.41 3.561 103.109-171.909-11.742-2.61Z" class="Vector"/>
      <path fill="#EEE" stroke="#0F062D" stroke-linecap="round" stroke-linejoin="round" stroke-width="2" d="M311.883 246.423 216.46 421.144l5.36 8.61 97.517-172.688-7.454-10.643Z" class="Vector"/>
    </g>
  </g>
</svg>
