<svg xmlns="http://www.w3.org/2000/svg" width="539" height="526" fill="none" viewBox="0 0 539 526">
  <g class="Group 8">
    <g class="code-editor">
      <g class="Group">
        <g class="Group">
          <path fill="#fff" d="m149.58 8.63 11.76-6.83c2.13-1.24 5.09-1.07 8.35.82l-11.76 6.83c-3.26-1.88-6.22-2.06-8.35-.82Z" class="Vector"/>
          <g class="Clip path group">
            <mask id="a" width="21" height="9" x="149" y="1" class="a" maskUnits="userSpaceOnUse" style="mask-type:luminance">
              <g class="clippath-8">
                <path fill="#fff" d="m149.58 8.63 11.76-6.83c2.13-1.24 5.09-1.07 8.35.82l-11.76 6.83c-3.26-1.88-6.22-2.06-8.35-.82Z" class="Vector"/>
              </g>
            </mask>
            <g class="Group" mask="url(#a)">
              <g class="Group">
                <path fill="#fff" stroke="#0F062D" stroke-linecap="round" stroke-linejoin="round" stroke-width="2" d="m149.58 8.63 11.76-6.83c.3-.17.62-.32.95-.44l-11.76 6.83c-.33.12-.65.26-.95.44Z" class="Vector"/>
                <path fill="#fff" stroke="#0F062D" stroke-linecap="round" stroke-linejoin="round" stroke-width="2" d="m150.53 8.19 11.76-6.83c.26-.09.54-.17.82-.23l-11.76 6.83c-.28.06-.56.13-.82.23Z" class="Vector"/>
                <path fill="#fff" stroke="#0F062D" stroke-linecap="round" stroke-linejoin="round" stroke-width="2" d="m151.35 7.96 11.76-6.83c.22-.04.45-.08.68-.1l-11.76 6.83c-.23.02-.46.05-.68.1Z" class="Vector"/>
                <path fill="#fff" stroke="#0F062D" stroke-linecap="round" stroke-linejoin="round" stroke-width="2" d="m152.02 7.86 11.76-6.83c.2-.02.4-.03.61-.03l-11.76 6.83c-.21 0-.41.01-.61.03Z" class="Vector"/>
                <path fill="#fff" stroke="#0F062D" stroke-linecap="round" stroke-linejoin="round" stroke-width="2" d="M152.63 7.83 164.39 1c.18 0 .37 0 .55.02l-11.76 6.83c-.19-.01-.37-.02-.55-.02Z" class="Vector"/>
                <path fill="#fff" stroke="#0F062D" stroke-linecap="round" stroke-linejoin="round" stroke-width="2" d="m153.18 7.85 11.76-6.83c.17.01.35.03.52.05L153.7 7.9c-.18-.02-.35-.04-.52-.05Zm.53.06 11.76-6.83c.17.02.34.05.51.08l-11.76 6.83c-.17-.03-.34-.06-.51-.08Z" class="Vector"/>
                <path fill="#fff" stroke="#0F062D" stroke-linecap="round" stroke-linejoin="round" stroke-width="2" d="m154.22 7.99 11.76-6.83c.16.03.32.07.48.11L154.7 8.1c-.16-.04-.32-.08-.48-.11Z" class="Vector"/>
                <path fill="#fff" stroke="#0F062D" stroke-linecap="round" stroke-linejoin="round" stroke-width="2" d="m154.7 8.1 11.76-6.83c.16.04.32.08.48.13l-11.76 6.83c-.16-.05-.32-.09-.48-.13Zm.49.13 11.76-6.83c.16.05.31.1.47.15l-11.76 6.83c-.16-.06-.31-.11-.47-.15Z" class="Vector"/>
                <path fill="#fff" stroke="#0F062D" stroke-linecap="round" stroke-linejoin="round" stroke-width="2" d="m155.66 8.38 11.76-6.83c.16.06.31.11.47.18l-11.76 6.83c-.16-.06-.32-.12-.47-.18Z" class="Vector"/>
                <path fill="#fff" stroke="#0F062D" stroke-linecap="round" stroke-linejoin="round" stroke-width="2" d="m156.13 8.56 11.76-6.83c.16.06.31.13.47.2L156.6 8.76c-.16-.07-.31-.14-.47-.2Z" class="Vector"/>
                <path fill="#fff" stroke="#0F062D" stroke-linecap="round" stroke-linejoin="round" stroke-width="2" d="m156.6 8.76 11.76-6.83c.16.07.32.15.48.22l-11.76 6.83c-.16-.08-.32-.15-.48-.22Zm.47.23 11.76-6.83c.16.08.32.16.48.25l-11.76 6.83c-.16-.09-.32-.17-.48-.25Zm.49.25 11.76-6.83c.12.07.25.14.37.21l-11.76 6.83c-.12-.07-.25-.14-.37-.21Z" class="Vector"/>
              </g>
            </g>
          </g>
          <path stroke="#0F062D" stroke-linecap="round" stroke-linejoin="round" stroke-width="2" d="m149.58 8.63 11.76-6.83c2.13-1.24 5.09-1.07 8.35.82l-11.76 6.83c-3.26-1.88-6.22-2.06-8.35-.82Z" class="Vector"/>
        </g>
        <g class="Group">
          <path fill="#fff" d="M533.76 492.69 522 499.52c2.11-1.22 3.41-3.83 3.42-7.53l11.76-6.83c-.01 3.7-1.32 6.31-3.42 7.53Z" class="Vector"/>
          <g class="Clip path group">
            <mask id="b" width="16" height="15" x="522" y="485" class="b" maskUnits="userSpaceOnUse" style="mask-type:luminance">
              <g class="clippath-9">
                <path fill="#fff" d="M533.76 492.69 522 499.52c2.11-1.22 3.41-3.83 3.42-7.53l11.76-6.83c-.01 3.7-1.32 6.31-3.42 7.53Z" class="Vector"/>
              </g>
            </mask>
            <g class="Group" mask="url(#b)">
              <g class="Group">
                <path fill="#fff" stroke="#0F062D" stroke-linecap="round" stroke-linejoin="round" stroke-width="2" d="m525.43 491.99 11.76-6.83v.03l-11.76 6.83v-.03Zm-.01.04 11.76-6.83c0 .19 0 .38-.01.57l-11.76 6.83c0-.19.01-.38.01-.57Z" class="Vector"/>
                <path fill="#fff" stroke="#0F062D" stroke-linecap="round" stroke-linejoin="round" stroke-width="2" d="m525.41 492.59 11.76-6.83c0 .19-.02.37-.03.55l-11.76 6.83c.01-.18.03-.37.03-.55Zm-.03.56 11.76-6.83-.06.57-11.76 6.83c.02-.18.04-.37.06-.57Z" class="Vector"/>
                <path fill="#fff" stroke="#0F062D" stroke-linecap="round" stroke-linejoin="round" stroke-width="2" d="m525.32 493.71 11.76-6.83c-.02.19-.05.38-.08.56l-11.76 6.83c.03-.18.06-.37.08-.56Z" class="Vector"/>
                <path fill="#fff" stroke="#0F062D" stroke-linecap="round" stroke-linejoin="round" stroke-width="2" d="m525.24 494.27 11.76-6.83c-.03.2-.07.39-.12.57l-11.76 6.83.12-.57Zm-.12.58 11.76-6.83c-.05.21-.1.41-.16.6l-11.76 6.83c.06-.19.11-.39.16-.6Z" class="Vector"/>
                <path fill="#fff" stroke="#0F062D" stroke-linecap="round" stroke-linejoin="round" stroke-width="2" d="m524.96 495.45 11.76-6.83c-.06.21-.13.42-.21.62l-11.76 6.83c.07-.2.14-.41.21-.62Zm-.2.62 11.76-6.83c-.09.23-.18.45-.28.67l-11.76 6.83c.1-.21.2-.44.28-.67Z" class="Vector"/>
                <path fill="#fff" stroke="#0F062D" stroke-linecap="round" stroke-linejoin="round" stroke-width="2" d="m524.48 496.73 11.76-6.83c-.13.28-.28.55-.44.8l-11.76 6.83c.16-.25.31-.52.44-.8Zm-.45.81 11.76-6.83c-.54.85-1.23 1.52-2.03 1.99L522 499.53c.8-.47 1.49-1.13 2.03-1.99Z" class="Vector"/>
              </g>
            </g>
          </g>
          <path stroke="#0F062D" stroke-linecap="round" stroke-linejoin="round" stroke-width="2" d="M533.76 492.69 522 499.52c2.11-1.22 3.41-3.83 3.42-7.53l11.76-6.83c-.01 3.7-1.32 6.31-3.42 7.53Z" class="Vector"/>
        </g>
        <path fill="#0F062D" stroke="#0F062D" stroke-linecap="round" stroke-linejoin="round" stroke-width="2" d="m526.15 235.55 11.76-6.83-.73 256.44-11.75 6.83.72-256.44ZM157.93 9.44l11.76-6.83 356.52 205.84-11.76 6.83L157.93 9.44Z" class="Vector"/>
        <path fill="#EEE" stroke="#0F062D" stroke-linecap="round" stroke-linejoin="round" stroke-width="2" d="M514.45 215.28c6.49 3.75 11.72 12.82 11.7 20.27l-.73 256.44c-.02 7.45-5.29 10.46-11.78 6.71L157.12 292.86c-6.48-3.74-11.72-12.82-11.7-20.27l.73-256.44c.02-7.45 5.3-10.45 11.78-6.71l356.52 205.84Z" class="Vector"/>
        <g class="Group">
          <path fill="#fff" d="m514.45 215.28 11.76-6.83c6.49 3.75 11.72 12.82 11.7 20.27l-11.76 6.83c.02-7.45-5.21-16.52-11.7-20.27Z" class="Vector"/>
          <g class="Clip path group">
            <mask id="c" width="24" height="28" x="514" y="208" class="c" maskUnits="userSpaceOnUse" style="mask-type:luminance">
              <g class="clippath-10">
                <path fill="#fff" d="m514.45 215.28 11.76-6.83c6.49 3.75 11.72 12.82 11.7 20.27l-11.76 6.83c.02-7.45-5.21-16.52-11.7-20.27Z" class="Vector"/>
              </g>
            </mask>
            <g class="Group" mask="url(#c)">
              <g class="Group">
                <path fill="#fff" stroke="#0F062D" stroke-linecap="round" stroke-linejoin="round" stroke-width="2" d="m514.45 215.28 11.76-6.83s.08.04.12.07l-11.76 6.83s-.08-.05-.12-.07Z" class="Vector"/>
                <path fill="#fff" stroke="#0F062D" stroke-linecap="round" stroke-linejoin="round" stroke-width="2" d="m514.57 215.35 11.76-6.83c.17.1.33.2.5.3l-11.76 6.83c-.16-.1-.33-.21-.5-.3Z" class="Vector"/>
                <path fill="#fff" stroke="#0F062D" stroke-linecap="round" stroke-linejoin="round" stroke-width="2" d="m515.06 215.65 11.76-6.83c.17.11.33.22.5.33l-11.76 6.83c-.17-.11-.33-.22-.5-.33Z" class="Vector"/>
                <path fill="#fff" stroke="#0F062D" stroke-linecap="round" stroke-linejoin="round" stroke-width="2" d="m515.56 215.98 11.76-6.83.51.36-11.76 6.83c-.17-.12-.34-.25-.51-.36Zm.51.37 11.76-6.83c.17.13.35.26.52.39l-11.76 6.83c-.17-.13-.34-.27-.52-.39Zm.52.39 11.76-6.83c.18.14.35.28.52.43l-11.76 6.83c-.17-.15-.35-.29-.52-.43Zm.52.43 11.76-6.83c.18.15.35.3.52.46l-11.76 6.83c-.17-.16-.35-.31-.52-.46Z" class="Vector"/>
                <path fill="#fff" stroke="#0F062D" stroke-linecap="round" stroke-linejoin="round" stroke-width="2" d="m517.63 217.62 11.76-6.83c.17.16.35.32.52.48l-11.76 6.83c-.17-.16-.34-.32-.52-.48Z" class="Vector"/>
                <path fill="#fff" stroke="#0F062D" stroke-linecap="round" stroke-linejoin="round" stroke-width="2" d="m518.15 218.1 11.76-6.83c.17.16.33.32.5.49l-11.76 6.83c-.16-.17-.33-.33-.5-.49Z" class="Vector"/>
                <path fill="#fff" stroke="#0F062D" stroke-linecap="round" stroke-linejoin="round" stroke-width="2" d="m518.64 218.59 11.76-6.83c.16.16.32.33.48.5l-11.76 6.83c-.16-.17-.32-.34-.48-.5Z" class="Vector"/>
                <path fill="#fff" stroke="#0F062D" stroke-linecap="round" stroke-linejoin="round" stroke-width="2" d="m519.12 219.09 11.76-6.83c.15.17.31.33.46.51l-11.76 6.83c-.15-.17-.3-.34-.46-.51Z" class="Vector"/>
                <path fill="#fff" stroke="#0F062D" stroke-linecap="round" stroke-linejoin="round" stroke-width="2" d="m519.58 219.6 11.76-6.83c.15.17.3.35.45.53l-11.76 6.83c-.15-.18-.3-.36-.45-.53Z" class="Vector"/>
                <path fill="#fff" stroke="#0F062D" stroke-linecap="round" stroke-linejoin="round" stroke-width="2" d="m520.03 220.13 11.76-6.83c.15.18.3.37.45.56l-11.76 6.83c-.15-.19-.3-.38-.45-.56Zm.46.56 11.76-6.83c.18.22.35.45.52.68l-11.76 6.83c-.17-.23-.34-.46-.52-.68Zm.52.69 11.76-6.83c.26.35.5.7.74 1.06l-11.76 6.83c-.24-.36-.49-.71-.74-1.06Z" class="Vector"/>
                <path fill="#fff" stroke="#0F062D" stroke-linecap="round" stroke-linejoin="round" stroke-width="2" d="m521.75 222.44 11.76-6.83c.3.45.59.91.87 1.38l-11.76 6.83c-.28-.47-.57-.93-.87-1.38Z" class="Vector"/>
                <path fill="#fff" stroke="#0F062D" stroke-linecap="round" stroke-linejoin="round" stroke-width="2" d="m522.62 223.82 11.76-6.83c.2.34.39.68.58 1.03l-11.76 6.83a34.2 34.2 0 0 0-.58-1.03Zm.58 1.03 11.76-6.83c.12.23.25.47.36.7l-11.76 6.83c-.12-.24-.24-.47-.36-.7Zm.36.71 11.76-6.83c.1.2.2.41.3.62l-11.76 6.83c-.1-.21-.2-.41-.3-.62Z" class="Vector"/>
                <path fill="#fff" stroke="#0F062D" stroke-linecap="round" stroke-linejoin="round" stroke-width="2" d="m523.86 226.17 11.76-6.83c.09.19.17.38.26.57l-11.76 6.83c-.08-.19-.17-.38-.26-.57Zm.26.57 11.76-6.83c.08.19.16.37.24.56l-11.76 6.83c-.08-.19-.16-.38-.24-.56Zm.24.56 11.76-6.83c.08.19.16.38.23.57l-11.76 6.83c-.07-.19-.15-.38-.23-.57Zm.23.57 11.76-6.83c.07.19.15.38.22.57l-11.76 6.83c-.07-.19-.14-.38-.22-.57Zm.22.58 11.76-6.83.21.6-11.76 6.83-.21-.6Z" class="Vector"/>
                <path fill="#fff" stroke="#0F062D" stroke-linecap="round" stroke-linejoin="round" stroke-width="2" d="m525.01 229.04 11.76-6.83c.07.2.13.4.19.61l-11.76 6.83c-.06-.2-.13-.41-.19-.61Zm.2.61 11.76-6.83.18.62-11.76 6.83-.18-.62Zm.18.62 11.76-6.83c.06.21.11.42.16.62l-11.76 6.83c-.05-.21-.11-.42-.16-.62Z" class="Vector"/>
                <path fill="#fff" stroke="#0F062D" stroke-linecap="round" stroke-linejoin="round" stroke-width="2" d="m525.55 230.89 11.76-6.83c.05.21.1.41.14.62l-11.76 6.83c-.04-.2-.09-.41-.14-.62Zm.15.62 11.76-6.83c.04.2.09.41.12.61l-11.76 6.83-.12-.61Zm.12.61 11.76-6.83c.04.2.07.4.1.59l-11.76 6.83c-.03-.2-.07-.4-.1-.59Zm.1.6 11.76-6.83c.03.2.06.39.08.59L526 233.31c-.02-.2-.05-.39-.08-.59Zm.09.59 11.76-6.83c.02.19.05.38.06.58l-11.76 6.83-.06-.58Z" class="Vector"/>
                <path fill="#fff" stroke="#0F062D" stroke-linecap="round" stroke-linejoin="round" stroke-width="2" d="m526.07 233.88 11.76-6.83c.02.19.03.38.05.57l-11.76 6.83c-.01-.19-.03-.38-.05-.57Zm.05.57 11.76-6.83.03.57-11.76 6.83c0-.19-.01-.38-.03-.57Z" class="Vector"/>
              </g>
            </g>
          </g>
          <path stroke="#0F062D" stroke-linecap="round" stroke-linejoin="round" stroke-width="2" d="m514.45 215.28 11.76-6.83c6.49 3.75 11.72 12.82 11.7 20.27l-11.76 6.83c.02-7.45-5.21-16.52-11.7-20.27Z" class="Vector"/>
        </g>
      </g>
      <path fill="#0F062D" d="M186.94 34.59 176.5 62.52l-4.35-2.51 10.43-27.94 4.36 2.52Zm.54 7.73 14.89 15.13-.02 6.11-14.93-2.09.02-4.5 10.44.95-10.41-11.13.01-4.47Z" class="Vector"/>
      <g class="Group">
        <path fill="#fff" stroke="#0F062D" stroke-linecap="round" stroke-linejoin="round" stroke-width="2" d="M432.61 386.83c2.76 1.59 5.01 5.49 5 8.66 0 3.17-2.27 4.46-5.03 2.86L203.1 265.86c-2.75-1.59-5-5.48-5-8.65 0-3.16 2.27-4.46 5.03-2.87l229.48 132.49Zm33.93-20.41c2.76 1.59 5 5.48 5 8.65s-2.27 4.46-5.03 2.87l-263.3-152.01c-2.75-1.59-5-5.49-5-8.65s2.27-4.46 5.03-2.87l263.3 152.01Zm.11-39.94c2.76 1.59 5 5.49 5 8.65s-2.27 4.46-5.03 2.87L290.85 236.52c-2.76-1.59-5.01-5.49-5-8.66.01-3.17 2.27-4.46 5.03-2.86l175.77 101.48Z" class="Vector"/>
        <g class="Vector">
          <path fill="#fff" d="m152.27 55.87 365.97 211.29-.62 219.38c0 3.37-2.4 4.73-5.33 3.03L156.95 284.41c-2.93-1.69-5.3-5.8-5.29-9.17l.62-219.38-.01.01ZM466.5 377.93c2.76 1.59 5.02.3 5.03-2.87 0-3.17-2.24-7.06-5-8.65L203.23 214.4c-2.75-1.59-5.02-.31-5.03 2.87 0 3.16 2.24 7.06 5 8.65l263.3 152.01Zm.23-79.88c2.76 1.59 5.02.3 5.03-2.87.01-3.17-2.24-7.06-5-8.65l-263.3-152.01c-2.75-1.59-5.02-.31-5.03 2.87 0 3.17 2.24 7.06 5 8.65l263.3 152.01Zm-34.16 100.29c2.76 1.59 5.02.31 5.03-2.86 0-3.16-2.24-7.06-5-8.66L203.12 254.33c-2.75-1.59-5.02-.3-5.03 2.87-.01 3.17 2.24 7.06 5 8.65l229.48 132.49ZM203.29 194.42c-2.75-1.59-5.02-.31-5.03 2.87 0 3.17 2.24 7.06 5 8.65l229.48 132.49c2.76 1.59 5.02.31 5.03-2.86 0-3.17-2.24-7.06-5-8.66L203.29 194.42Zm-4.92-37.07c0 3.16 2.24 7.06 5 8.65l206.84 119.42c2.76 1.59 5.02.3 5.03-2.86 0-3.17-2.24-7.07-5-8.66L203.4 154.48c-2.75-1.59-5.02-.3-5.03 2.87Zm268.24 180.64c2.76 1.59 5.02.3 5.03-2.87 0-3.16-2.24-7.06-5-8.65L290.87 224.99c-2.76-1.59-5.03-.3-5.03 2.86 0 3.17 2.24 7.07 5 8.66l175.77 101.48ZM198.15 237.23c0 3.16 2.24 7.06 5 8.65l160.38 92.6c2.76 1.59 5.02.3 5.03-2.87 0-3.17-2.24-7.07-5-8.66l-160.38-92.6c-2.75-1.59-5.02-.3-5.03 2.87"/>
          <path stroke="#0F062D" stroke-linecap="round" stroke-linejoin="round" stroke-width="2" d="M198.15 237.23c0 3.16 2.24 7.06 5 8.65l160.38 92.6c2.76 1.59 5.02.3 5.03-2.87 0-3.17-2.24-7.07-5-8.66l-160.38-92.6c-2.75-1.59-5.02-.3-5.03 2.87M152.27 55.87l365.97 211.29-.62 219.38c0 3.37-2.4 4.73-5.33 3.03L156.95 284.41c-2.93-1.69-5.3-5.8-5.29-9.17l.62-219.38-.01.01ZM466.5 377.93c2.76 1.59 5.02.3 5.03-2.87 0-3.17-2.24-7.06-5-8.65L203.23 214.4c-2.75-1.59-5.02-.31-5.03 2.87 0 3.16 2.24 7.06 5 8.65l263.3 152.01Zm.23-79.88c2.76 1.59 5.02.3 5.03-2.87.01-3.17-2.24-7.06-5-8.65l-263.3-152.01c-2.75-1.59-5.02-.31-5.03 2.87 0 3.17 2.24 7.06 5 8.65l263.3 152.01Zm-34.16 100.29c2.76 1.59 5.02.31 5.03-2.86 0-3.16-2.24-7.06-5-8.66L203.12 254.33c-2.75-1.59-5.02-.3-5.03 2.87-.01 3.17 2.24 7.06 5 8.65l229.48 132.49ZM203.29 194.42c-2.75-1.59-5.02-.31-5.03 2.87 0 3.17 2.24 7.06 5 8.65l229.48 132.49c2.76 1.59 5.02.31 5.03-2.86 0-3.17-2.24-7.06-5-8.66L203.29 194.42Zm-4.92-37.07c0 3.16 2.24 7.06 5 8.65l206.84 119.42c2.76 1.59 5.02.3 5.03-2.86 0-3.17-2.24-7.07-5-8.66L203.4 154.48c-2.75-1.59-5.02-.3-5.03 2.87Zm268.24 180.64c2.76 1.59 5.02.3 5.03-2.87 0-3.16-2.24-7.06-5-8.65L290.87 224.99c-2.76-1.59-5.03-.3-5.03 2.86 0 3.17 2.24 7.07 5 8.66l175.77 101.48Z"/>
        </g>
        <path fill="#fff" stroke="#0F062D" stroke-linecap="round" stroke-linejoin="round" stroke-width="2" d="M363.57 326.97c2.76 1.59 5 5.49 5 8.66 0 3.16-2.27 4.46-5.03 2.87l-160.38-92.6c-2.75-1.59-5-5.49-5-8.65 0-3.17 2.27-4.46 5.03-2.87l160.38 92.6v-.01Zm69.21-.05c2.76 1.59 5.01 5.49 5 8.66 0 3.17-2.27 4.46-5.03 2.86L203.27 205.95c-2.75-1.59-5-5.48-5-8.65s2.27-4.46 5.03-2.87l229.48 132.49Zm-22.53-53.01c2.76 1.59 5.01 5.49 5 8.66 0 3.16-2.27 4.46-5.03 2.86L203.38 166.01c-2.75-1.59-5-5.49-5-8.65 0-3.17 2.27-4.46 5.03-2.87l206.84 119.42Zm56.52 12.63c2.76 1.59 5 5.48 5 8.65s-2.27 4.46-5.03 2.87l-263.3-152.01c-2.75-1.59-5-5.48-5-8.65s2.27-4.46 5.03-2.87l263.3 152.01Z" class="Vector"/>
      </g>
      <path fill="#0F062D" d="m171.35 33.01-.01 4.47-10.45-.91 10.42 11.09-.01 4.5-14.9-15.13.02-6.11 14.93 2.09Z" class="Vector"/>
      <g class="highlight-line">
        <g class="highlight" opacity=".01">
          <path fill="#fff" stroke="#34D1BF" stroke-linecap="round" stroke-linejoin="round" stroke-width="2" d="M278.54 224.26c0-.06 0-.12-.01-.19 0-.11-.01-.23-.02-.34v-.12c0-.04-.02-.09-.02-.13a5.25 5.25 0 0 0-.09-.55c0-.05-.01-.09-.02-.14 0-.02-.01-.05-.02-.07-.06-.25-.12-.5-.2-.75-.01-.04-.03-.08-.04-.12-.07-.21-.14-.43-.23-.64-.01-.03-.02-.07-.04-.1a.886.886 0 0 0-.08-.17c-.04-.1-.09-.21-.13-.31-.02-.05-.04-.09-.06-.14l-.06-.12c-.09-.19-.19-.38-.29-.57-.03-.06-.06-.12-.09-.17-.14-.24-.28-.47-.43-.7 0-.01-.01-.03-.02-.04l-.07-.1c-.13-.19-.27-.38-.41-.56-.03-.03-.05-.07-.08-.11-.03-.03-.06-.07-.09-.1-.09-.11-.18-.22-.27-.32l-.12-.15c-.02-.03-.05-.05-.07-.08-.07-.08-.15-.16-.22-.23-.05-.05-.1-.11-.15-.16-.03-.03-.05-.05-.08-.07-.07-.06-.13-.12-.2-.18-.05-.05-.1-.1-.16-.15a.7.7 0 0 0-.1-.08c-.07-.05-.13-.11-.2-.16-.05-.04-.09-.08-.14-.11-.04-.03-.09-.06-.13-.09l-.21-.15c-.04-.03-.08-.06-.11-.08-.1-.06-.2-.13-.3-.18l-71.82-41.46c-.06-.04-.13-.07-.19-.11-.05-.03-.1-.05-.15-.07-.1-.05-.19-.09-.29-.13a.467.467 0 0 1-.1-.05l-.1-.03c-.15-.06-.3-.11-.45-.15-.04 0-.07-.03-.11-.03h-.05c-.19-.04-.37-.07-.55-.09h-.51c-.05 0-.1.01-.16.02-.12.02-.23.04-.34.07a2.346 2.346 0 0 0-.57.23l-11.76 6.83c.13-.08.28-.14.43-.19.05-.02.09-.03.14-.04.11-.03.23-.06.34-.07.05 0 .1-.02.16-.02.14-.01.28-.01.43 0h.08c.18.01.36.04.55.09.05.01.1.03.15.04.15.04.3.09.45.15.07.03.14.05.2.08.09.04.19.09.29.13.11.06.23.11.34.18l71.82 41.46c.14.08.28.17.41.26l.21.15.27.21c.07.05.13.1.2.16.09.07.18.15.26.23.07.06.13.12.2.18.08.08.16.16.23.24.08.08.15.15.22.23.07.07.13.15.2.22.09.11.18.21.27.32.05.07.11.14.16.21.14.18.28.37.41.56.03.05.06.09.09.14.15.23.29.46.43.7.03.06.06.12.09.17.1.19.2.38.29.57.04.08.08.17.12.26.05.1.09.21.14.31.04.09.08.18.11.28.08.21.16.43.23.65.01.04.03.08.04.12.08.25.14.5.2.76.02.07.03.14.04.2.04.19.07.37.09.55l.03.25c.01.12.02.23.02.34 0 .13.02.26.02.39 0 .16-.01.32-.02.47 0 .08-.01.15-.02.23-.01.1-.03.19-.04.29-.01.07-.03.14-.04.21-.02.09-.04.17-.07.26-.02.07-.04.14-.06.2-.03.08-.06.15-.09.22l-.09.21c-.03.06-.06.12-.1.17-.05.08-.09.16-.15.23-.03.05-.07.09-.1.13-.1.12-.21.24-.32.34-.01.01-.02.02-.04.03-.1.09-.21.16-.33.23l11.76-6.83c.12-.07.23-.15.33-.23l.03-.03c.12-.1.22-.21.32-.34.01-.02.03-.03.05-.05.02-.02.03-.06.05-.08.05-.07.1-.15.15-.23l.06-.09c.01-.02.02-.05.04-.08l.09-.21c.02-.04.04-.08.06-.13l.03-.09c.02-.06.04-.13.06-.2.01-.05.03-.09.04-.14 0-.04.02-.08.02-.12.02-.07.03-.14.04-.21 0-.04.02-.08.03-.13 0-.05.01-.11.02-.16 0-.07.02-.15.02-.23 0-.04 0-.07.01-.11 0-.12.01-.24.01-.36v-.24Z" class="Vector"/>
          <path fill="#89EFDB" stroke="#34D1BF" stroke-linecap="round" stroke-linejoin="round" stroke-width="2" d="M261.78 222.65c2.75 1.59 5 5.49 5 8.65 0 3.17-2.27 4.46-5.03 2.87l-71.82-41.46c-2.75-1.59-5-5.49-5-8.66s2.27-4.46 5.03-2.87l71.82 41.46v.01Z" class="Vector"/>
        </g>
        <path stroke="#0F062D" stroke-linecap="round" stroke-linejoin="round" stroke-width="2" d="M273.85 216.151c2.75 1.59 5 5.49 5 8.65 0 3.17-2.27 4.46-5.03 2.87L202 186.211c-2.75-1.59-5-5.49-5-8.66s2.27-4.46 5.03-2.87l71.82 41.46v.01Z" class="line"/>
      </g>
      <g class="highlight-line">
        <g class="highlight" opacity=".01">
          <g class="Group 3">
            <path fill="#EEE" d="m357.29 338.23 11.76-6.83c.91-.53 2.17-.46 3.56.34l-11.76 6.83c-1.39-.8-2.65-.87-3.56-.34Z" class="Vector"/>
            <g class="Clip path group">
              <mask id="d" width="16" height="8" x="357" y="331" class="d" maskUnits="userSpaceOnUse" style="mask-type:luminance">
                <g class="clippath-11">
                  <path fill="#fff" d="m357.29 338.23 11.76-6.83c.91-.53 2.17-.46 3.56.34l-11.76 6.83c-1.39-.8-2.65-.87-3.56-.34Z" class="Vector"/>
                </g>
              </mask>
              <g class="Group" mask="url(#d)">
                <g class="Group">
                  <path fill="#EEE" stroke="#34D1BF" stroke-linecap="round" stroke-linejoin="round" stroke-width="2" d="m357.29 338.23 11.76-6.83c.6-.35 1.34-.44 2.17-.23L359.46 338c-.83-.2-1.58-.11-2.17.23Z" class="Vector"/>
                  <path fill="#EEE" stroke="#34D1BF" stroke-linecap="round" stroke-linejoin="round" stroke-width="2" d="m359.46 338 11.76-6.83c.21.05.43.12.66.21l-11.76 6.83c-.22-.09-.44-.16-.66-.21Z" class="Vector"/>
                  <path fill="#EEE" stroke="#34D1BF" stroke-linecap="round" stroke-linejoin="round" stroke-width="2" d="m360.11 338.21 11.76-6.83c.18.07.36.16.54.25l-11.76 6.83c-.18-.1-.36-.18-.54-.25Z" class="Vector"/>
                  <path fill="#EEE" stroke="#34D1BF" stroke-linecap="round" stroke-linejoin="round" stroke-width="2" d="m360.65 338.46 11.76-6.83c.06.03.13.07.19.11l-11.76 6.83c-.06-.04-.13-.07-.19-.11Z" class="Vector"/>
                </g>
              </g>
            </g>
            <path stroke="#34D1BF" stroke-linecap="round" stroke-linejoin="round" stroke-width="2" d="m357.29 338.23 11.76-6.83c.91-.53 2.17-.46 3.56.34l-11.76 6.83c-1.39-.8-2.65-.87-3.56-.34Z" class="Vector"/>
            <path fill="#fff" stroke="#34D1BF" stroke-linecap="round" stroke-linejoin="round" stroke-width="2" d="m360.85 338.57 11.76-6.83 87.54 50.54-11.76 6.83-87.54-50.54Zm104.28 52.73c0-.12.01-.24.01-.36v-.21c0-.06 0-.12-.01-.18 0-.12-.01-.23-.02-.35v-.12c0-.04-.02-.09-.02-.13-.02-.19-.06-.37-.09-.56 0-.05-.01-.09-.02-.14 0-.02-.01-.04-.02-.07-.06-.25-.12-.5-.2-.76-.01-.04-.03-.08-.04-.12-.07-.21-.14-.43-.23-.64-.01-.03-.02-.07-.04-.1-.02-.06-.05-.11-.07-.17-.04-.1-.09-.21-.13-.31-.02-.05-.04-.09-.06-.14l-.06-.12c-.09-.19-.19-.38-.29-.57-.03-.06-.06-.12-.09-.17-.14-.24-.28-.47-.43-.7 0-.01-.02-.03-.02-.04-.02-.04-.05-.07-.07-.1-.13-.19-.26-.38-.4-.56-.03-.03-.05-.07-.08-.11-.03-.03-.06-.07-.09-.1-.09-.11-.18-.21-.27-.32l-.12-.15c-.02-.03-.05-.05-.07-.08-.07-.08-.15-.16-.22-.23-.05-.05-.1-.11-.15-.16a.5.5 0 0 0-.08-.07c-.07-.06-.13-.12-.2-.19-.05-.05-.1-.1-.16-.14a.7.7 0 0 0-.1-.08c-.07-.05-.13-.11-.2-.16-.05-.04-.09-.08-.14-.11-.04-.03-.09-.06-.14-.09l-.21-.15c-.04-.03-.08-.05-.11-.08-.1-.06-.2-.13-.3-.18l-11.76 6.83c.14.08.28.17.41.26l.21.15.27.21c.07.05.13.11.2.16.09.07.18.15.26.23.07.06.14.12.2.19l.24.24c.07.08.15.15.22.23.07.07.13.15.2.23.09.1.18.21.27.32.05.07.11.14.16.21.14.18.27.37.4.56.03.05.07.09.1.14.15.23.29.46.43.7.03.06.06.12.09.17.1.19.2.38.29.57.04.09.08.17.12.26.05.1.09.21.13.31.04.09.08.18.11.28.08.21.16.42.23.64.01.04.03.08.04.13.08.25.14.5.2.75.02.07.03.13.04.2.04.19.07.37.09.56l.03.25.03.35c0 .13.02.26.02.39 0 .16-.01.32-.02.47 0 .08-.01.15-.02.23-.01.1-.03.19-.04.29-.01.07-.03.14-.04.21-.02.09-.04.17-.07.26-.02.07-.04.14-.06.2-.03.08-.06.15-.09.22l-.09.21c-.03.06-.06.12-.1.17-.05.08-.09.16-.15.23-.03.05-.07.09-.1.13-.1.12-.21.24-.32.34-.01.01-.02.02-.04.03-.1.09-.21.16-.33.23l11.76-6.83c.12-.07.23-.15.33-.23l.03-.03c.12-.1.22-.21.32-.34.01-.02.03-.03.05-.05.02-.03.03-.06.05-.08.05-.07.1-.15.15-.23l.06-.09c.01-.02.02-.05.04-.08l.09-.21c.02-.04.04-.08.06-.13l.03-.09c.02-.06.04-.13.06-.2.01-.05.03-.09.04-.14 0-.04.02-.08.02-.12.02-.07.03-.14.04-.21 0-.04.02-.08.03-.13 0-.05.01-.11.02-.16 0-.07.02-.15.02-.23 0-.04 0-.07.01-.11l-.03-.03Z" class="Vector"/>
          </g>
          <path fill="#89EFDB" stroke="#34D1BF" stroke-linecap="round" stroke-linejoin="round" stroke-width="2" d="M448.39 389.11c2.76 1.59 5 5.49 5 8.66s-2.27 4.46-5.03 2.87l-87.54-50.54c-2.75-1.59-5-5.49-5-8.65 0-3.17 2.27-4.46 5.03-2.87l87.54 50.54v-.01Zm11.55-6.97-11.6 6.93-4.41-2.54 11.56-6.96 4.45 2.57Zm-72.09-41.7-11.59 6.93-10.71-6.17 11.55-6.95 10.75 6.19Z" class="Vector"/>
        </g>
        <path stroke="#0F062D" stroke-linecap="round" stroke-linejoin="round" stroke-width="2" d="M460.39 382.11c2.76 1.59 5 5.49 5 8.66s-2.27 4.46-5.03 2.87l-87.54-50.54c-2.75-1.59-5-5.49-5-8.65 0-3.17 2.27-4.46 5.03-2.87l87.54 50.54v-.01Z" class="line"/>
      </g>
      <g class="highlight-line">
        <g class="highlight" opacity=".01">
          <g class="Group 2">
            <path fill="#89EFDB" d="m173.35 112.49 11.76-6.52c.91-.51 2.17-.44 3.56.33l-11.76 6.52c-1.39-.77-2.65-.83-3.56-.33Z" class="Vector"/>
            <g class="Clip path group">
              <mask id="e" width="16" height="8" x="173" y="105" class="e" maskUnits="userSpaceOnUse" style="mask-type:luminance">
                <g class="clippath-12">
                  <path fill="#fff" d="m173.35 112.49 11.76-6.52c.91-.51 2.17-.44 3.56.33l-11.76 6.52c-1.39-.77-2.65-.83-3.56-.33Z" class="Vector"/>
                </g>
              </mask>
              <g class="Group" mask="url(#e)">
                <g class="Group">
                  <path fill="#89EFDB" stroke="#34D1BF" stroke-linecap="round" stroke-linejoin="round" stroke-width="2" d="m173.35 112.49 11.76-6.52c.6-.33 1.34-.42 2.17-.22l-11.76 6.52c-.83-.19-1.58-.11-2.17.22Zm2.17-.22 11.76-6.52c.21.05.43.12.66.2l-11.76 6.52c-.22-.09-.44-.16-.66-.2Zm.66.2 11.76-6.52c.18.07.36.15.54.24l-11.76 6.52c-.18-.09-.36-.17-.54-.24Zm.54.25 11.76-6.52c.06.03.13.07.19.1l-11.76 6.52c-.06-.04-.13-.07-.19-.1Z" class="Vector"/>
                </g>
              </g>
            </g>
            <path stroke="#34D1BF" stroke-linecap="round" stroke-linejoin="round" stroke-width="2" d="m173.35 112.49 11.76-6.52c.91-.51 2.17-.44 3.56.33l-11.76 6.52c-1.39-.77-2.65-.83-3.56-.33Z" class="Vector"/>
            <path fill="#fff" stroke="#34D1BF" stroke-linecap="round" stroke-linejoin="round" stroke-width="2" d="m176.91 113.16 11.76-6.83 87.55 50.54-11.76 6.83-87.55-50.54Z" class="Vector"/>
            <path fill="#fff" stroke="#34D1BF" stroke-linecap="round" stroke-linejoin="round" stroke-width="2" d="M281.2 165.88c0-.12.01-.24.01-.36v-.21c0-.06 0-.12-.01-.18 0-.12-.01-.23-.03-.35v-.12c0-.04-.02-.09-.02-.13-.02-.19-.06-.37-.09-.56 0-.05-.01-.09-.02-.14 0-.02-.01-.04-.02-.07-.06-.25-.12-.5-.2-.75-.01-.04-.03-.08-.04-.12-.07-.21-.14-.43-.23-.64-.01-.03-.02-.07-.04-.1-.02-.06-.05-.11-.07-.17-.04-.1-.09-.21-.13-.31-.02-.05-.04-.09-.06-.14l-.06-.12a15.298 15.298 0 0 0-.39-.75c-.14-.24-.28-.47-.43-.7 0-.01-.01-.02-.02-.04l-.07-.1c-.13-.19-.26-.38-.4-.56-.03-.03-.05-.07-.08-.11a.902.902 0 0 0-.09-.1c-.09-.11-.18-.21-.27-.32l-.12-.15c-.02-.03-.05-.05-.07-.08-.07-.08-.15-.16-.22-.23-.05-.05-.1-.11-.15-.16-.03-.03-.06-.05-.08-.08-.07-.06-.13-.12-.2-.19-.05-.05-.1-.1-.16-.14-.03-.03-.07-.06-.11-.09-.07-.05-.13-.11-.2-.16-.05-.04-.09-.08-.14-.11-.04-.03-.09-.06-.14-.1l-.21-.15c-.04-.03-.08-.05-.11-.08-.1-.06-.2-.13-.3-.18l-11.76 6.83c.14.08.28.17.41.26l.21.15c.09.07.18.13.27.21.07.05.13.11.2.16.09.07.18.15.26.23.07.06.14.12.2.19l.24.24c.07.08.15.15.22.23.07.07.13.15.2.22.09.1.18.21.27.32.05.07.11.14.16.21.14.18.28.37.41.56.03.04.06.09.09.13.15.23.29.46.43.7.03.06.06.12.1.18.1.19.2.38.29.57.04.09.08.17.12.26.05.1.09.21.13.31.04.09.08.18.11.28.08.21.16.42.23.64.01.04.03.08.04.13.08.25.14.5.2.75.02.07.03.14.04.2.04.19.07.37.09.56l.03.25c.01.12.02.23.02.35 0 .13.02.26.02.39 0 .16-.01.32-.02.47 0 .08-.01.15-.02.23-.01.1-.03.19-.04.29-.01.07-.03.14-.04.21-.02.09-.04.17-.07.26-.02.07-.04.14-.06.2-.03.08-.06.15-.09.22l-.09.21a.95.95 0 0 1-.1.17c-.05.08-.09.15-.15.23-.03.05-.07.09-.1.13-.1.12-.21.24-.32.34-.01.01-.02.02-.04.03-.1.09-.21.16-.33.23l11.76-6.83c.12-.07.23-.14.33-.23l.03-.03c.12-.1.22-.21.32-.34.01-.02.03-.03.05-.05.02-.03.03-.06.05-.08.05-.07.1-.15.15-.23l.06-.09a.3.3 0 0 1 .04-.08l.09-.21c.02-.04.04-.08.06-.13l.03-.09c.02-.06.04-.13.06-.2.01-.05.03-.09.04-.14 0-.04.02-.08.02-.12.02-.07.03-.14.04-.21 0-.04.02-.08.03-.13 0-.05.01-.11.02-.16 0-.07.02-.15.02-.23 0-.04 0-.07.01-.11v.01Z" class="Vector"/>
            <path fill="#89EFDB" stroke="#34D1BF" stroke-linecap="round" stroke-linejoin="round" stroke-width="2" d="m275.52 156.38-11.59 6.93-4.41-2.55 11.55-6.95 4.45 2.57Zm-6.86-3.81-11.59 6.93-10.71-6.16 11.55-6.96 10.75 6.19Z" class="Vector"/>
          </g>
          <path fill="#89EFDB" stroke="#34D1BF" stroke-linecap="round" stroke-linejoin="round" stroke-width="2" d="M264.46 163.7c2.76 1.59 5 5.48 5 8.65s-2.27 4.46-5.03 2.87l-87.54-50.54c-2.76-1.59-5-5.48-5-8.65s2.27-4.46 5.03-2.87l87.54 50.54Z" class="Vector"/>
        </g>
        <path stroke="#0F062D" stroke-linecap="round" stroke-linejoin="round" stroke-width="2" d="M276.57 157.221c2.76 1.59 5 5.48 5 8.65s-2.27 4.46-5.03 2.87L189 118.201c-2.76-1.59-5-5.48-5-8.65s2.27-4.46 5.03-2.87l87.54 50.54Z" class="line"/>
      </g>
      <g class="highlight-line">
        <g class="highlight" opacity=".01">
          <path fill="#fff" stroke="#34D1BF" stroke-linecap="round" stroke-linejoin="round" stroke-width="2" d="M465.56 312.31c0-.12.01-.24.01-.36v-.21c0-.06 0-.12-.01-.18 0-.12-.01-.23-.02-.35v-.12c0-.04-.02-.09-.02-.13-.02-.19-.06-.37-.09-.56 0-.05-.01-.09-.02-.14 0-.02-.01-.04-.02-.07-.06-.25-.12-.5-.2-.75-.01-.04-.03-.08-.04-.13-.07-.21-.14-.42-.23-.64-.01-.03-.02-.07-.04-.1-.02-.06-.05-.11-.07-.17-.04-.1-.09-.21-.14-.31-.02-.05-.04-.09-.06-.14l-.06-.12c-.09-.19-.19-.38-.29-.57-.03-.06-.06-.12-.09-.17-.14-.24-.28-.47-.43-.7 0-.01-.02-.03-.02-.04-.02-.04-.05-.07-.07-.1-.13-.19-.26-.38-.4-.56-.03-.03-.05-.07-.08-.11-.03-.03-.06-.07-.09-.1-.09-.11-.18-.21-.27-.32l-.12-.15c-.02-.03-.05-.05-.07-.08-.07-.08-.15-.16-.22-.23-.05-.05-.1-.11-.15-.16a.5.5 0 0 0-.08-.07c-.07-.06-.13-.12-.2-.18-.05-.05-.1-.1-.16-.15-.03-.03-.07-.06-.11-.09-.07-.05-.13-.11-.2-.16-.05-.04-.09-.08-.14-.11-.04-.03-.09-.06-.14-.09l-.21-.15c-.04-.03-.08-.05-.11-.08-.1-.06-.2-.13-.3-.18l-40.67-23.48c-.06-.04-.13-.07-.19-.11-.05-.03-.1-.05-.15-.07-.1-.05-.19-.09-.29-.14a.467.467 0 0 1-.1-.05l-.1-.03c-.15-.06-.3-.11-.45-.15-.03 0-.07-.03-.11-.03h-.04c-.19-.04-.37-.07-.55-.09h-.52c-.05 0-.1.01-.16.02-.12.02-.23.04-.34.07a2.346 2.346 0 0 0-.57.23l-11.76 6.83c.13-.08.28-.14.43-.19.04-.02.09-.03.14-.04.11-.03.23-.06.34-.07.05 0 .1-.02.16-.02.14-.01.28-.01.43 0h.09c.18.01.36.04.55.09.05.01.1.03.15.04.15.04.3.09.45.15.07.03.14.05.2.08.1.04.19.09.29.14.11.06.23.11.34.18l40.67 23.48c.14.08.28.17.41.26l.21.15c.09.07.18.13.27.21.07.05.13.11.2.16.09.07.18.15.26.23.07.06.13.12.2.18l.24.24c.08.08.15.15.22.23.07.07.13.15.2.22.09.1.18.21.27.32.05.07.11.14.16.21.14.18.27.37.4.56.03.05.07.09.1.14.15.23.29.46.43.7.03.06.06.11.09.17.1.19.2.38.29.57.04.09.08.17.12.26.05.1.09.21.13.31.04.09.08.19.11.28.08.21.16.42.23.64.01.04.03.08.04.13.08.25.14.5.2.75.02.07.03.14.04.2.04.19.07.37.09.56l.03.25c.01.12.02.23.02.35 0 .13.02.26.02.39 0 .16-.01.32-.02.47 0 .08-.01.15-.02.23-.01.1-.03.19-.04.29-.01.07-.03.14-.04.21-.02.09-.04.17-.07.26l-.06.2c-.03.08-.06.15-.09.22l-.09.21a.95.95 0 0 1-.1.17c-.05.08-.09.16-.15.23-.03.05-.07.09-.1.13-.1.12-.21.24-.32.34l-.03.03c-.1.09-.21.16-.33.23l11.76-6.83c.12-.07.23-.15.33-.23l.03-.03c.12-.1.22-.21.32-.34.01-.02.03-.03.05-.05.02-.03.03-.06.05-.08.05-.07.1-.15.15-.23l.06-.09c.01-.02.02-.05.04-.08l.09-.21c.02-.04.04-.08.06-.13l.03-.09.06-.2c.01-.05.03-.09.04-.14 0-.04.02-.08.02-.12.02-.07.03-.14.04-.21 0-.04.02-.08.03-.13 0-.05.01-.11.02-.16 0-.07.02-.15.02-.23 0-.04 0-.07.01-.11l-.01-.01Z" class="Vector"/>
          <path fill="#89EFDB" stroke="#34D1BF" stroke-linecap="round" stroke-linejoin="round" stroke-width="2" d="M448.81 310.13c2.76 1.59 5 5.49 5 8.66 0 3.16-2.27 4.46-5.03 2.87l-40.67-23.48c-2.76-1.59-5-5.49-5-8.65 0-3.17 2.27-4.46 5.03-2.87l40.67 23.48v-.01Z" class="Vector"/>
        </g>
        <path stroke="#0F062D" stroke-linecap="round" stroke-linejoin="round" stroke-width="2" d="M460.7 303.151c2.76 1.59 5 5.49 5 8.66 0 3.16-2.27 4.46-5.03 2.87L420 291.201c-2.76-1.59-5-5.49-5-8.65 0-3.17 2.27-4.46 5.03-2.87l40.67 23.48v-.01Z" class="line"/>
      </g>
      <g class="cursor">
        <path fill="#fff" stroke="#34D1BF" stroke-linecap="round" stroke-linejoin="round" stroke-width="2" d="m301.68 261.43 7.05-4.11-13.43 10.3-7.05 4.1 13.43-10.29Z" class="Vector"/>
        <path fill="#fff" stroke="#34D1BF" stroke-linecap="round" stroke-linejoin="round" stroke-width="2" d="M333.34 283.3v-.3c0-.08 0-.16-.01-.24 0-.08-.01-.16-.02-.24 0-.08-.02-.16-.03-.25 0-.02 0-.05-.01-.07v-.05c0-.04-.01-.09-.02-.13-.01-.09-.03-.17-.04-.26 0-.05-.02-.1-.03-.16v-.05c0-.02 0-.04-.01-.06l-.06-.27c-.02-.09-.05-.18-.07-.27-.02-.09-.05-.18-.08-.27-.03-.09-.05-.17-.08-.26 0-.03-.02-.05-.03-.08 0-.02-.01-.03-.02-.05-.01-.04-.03-.09-.04-.13-.03-.08-.06-.16-.09-.25-.03-.07-.06-.15-.09-.22v-.01c-.03-.08-.07-.16-.1-.24-.04-.08-.07-.16-.11-.25-.02-.04-.04-.07-.05-.11 0-.02-.02-.04-.03-.05-.02-.03-.03-.06-.05-.09-.05-.1-.1-.21-.16-.31-.02-.04-.05-.08-.07-.13-.03-.05-.06-.11-.09-.16s-.06-.11-.09-.17a7.45 7.45 0 0 0-.23-.37l-16.33-25.5-7.06 4.1 16.33 25.5c.11.18.22.35.32.53.03.05.06.11.09.16.1.17.19.35.27.53 0 .02.02.04.03.05.1.2.19.4.27.6.08.21.16.41.23.61 0 .02.01.03.02.05.14.4.25.8.33 1.2 0 .02 0 .03.01.05.04.18.07.36.09.54v.05c.03.19.05.38.06.56.01.18.02.36.01.54v.05c0 .16-.01.32-.03.48v.05c-.02.15-.04.3-.07.45 0 .02 0 .04-.01.06-.03.14-.07.27-.11.41 0 .03-.02.05-.03.08-.05.13-.1.27-.16.39v.01c-.06.12-.12.24-.2.35-.05.08-.12.16-.18.24l-.09.12c-.1.11-.21.21-.32.3-.08.06-.17.12-.26.17l7.06-4.1c.09-.05.17-.11.26-.17.12-.09.22-.19.32-.3l.09-.12c.06-.08.12-.15.18-.24l.02-.02c.06-.1.12-.21.18-.32 0 0 0-.01.01-.02.04-.09.08-.19.12-.29l.03-.1c0-.03.02-.05.03-.08 0-.03.02-.06.03-.09.02-.08.05-.17.07-.26 0-.02 0-.04.01-.06 0-.02 0-.04.01-.05 0-.04.02-.09.03-.13.01-.08.03-.16.04-.24v-.13c0-.04 0-.07.01-.11 0-.08.01-.16.01-.24v-.18l-.01.02Z" class="Vector"/>
        <path fill="#34D1BF" stroke="#34D1BF" stroke-linecap="round" stroke-linejoin="round" stroke-width="2" d="m251.63 175.64 35 35.24 35.01 35.24-13.43 10.3 16.33 25.5c2.1 3.28 2.34 7.06.54 8.44-1 .76-2.41.64-3.82-.18-1.15-.66-2.31-1.79-3.25-3.26l-16.33-25.5-13.43 10.29-18.31-48.03-18.31-48.04Z" class="Vector"/>
        <path fill="#fff" stroke="#34D1BF" stroke-linecap="round" stroke-linejoin="round" stroke-width="2" d="m293.69 206.78-35-35.24-7.06 4.1 35 35.24 35.01 35.24 7.05-4.1-35-35.24Z" class="Vector"/>
        <path fill="#fff" stroke="#34D1BF" stroke-linecap="round" stroke-linejoin="round" stroke-width="2" d="m321.64 246.12 7.05-4.1-13.42 10.3-7.06 4.1 13.43-10.3Z" class="Vector"/>
      </g>
      <path fill="#0F062D" d="m526.14 242.38 11.76-6.83v11.26l-11.76 6.83v-11.26Zm0 14.02 11.76-6.83v4.3l-11.76 6.83v-4.3Z" class="Vector"/>
    </g>
    <g class="brackets">
      <g class="Group">
        <path fill="#fff" stroke="#0F062D" stroke-linecap="round" stroke-linejoin="round" stroke-width="2" d="m37.1 308.14 29.35-17.06 83.36 88.8-29.35 17.06-83.36-88.8Z" class="Vector"/>
        <path fill="#fff" stroke="#0F062D" stroke-linecap="round" stroke-linejoin="round" stroke-width="2" d="m120.46 396.94 29.35-17.06-.1 36.02-29.36 17.06.11-36.02Z" class="Vector"/>
        <path fill="#2C4BF3" stroke="#0F062D" stroke-linecap="round" stroke-linejoin="round" stroke-width="2" d="m120.79 279.73-.1 35.7-83.59-7.29 83.36 88.8-.11 36.02L1.18 311.93l.14-48.96 119.47 16.76Z" class="Vector"/>
        <path fill="#fff" stroke="#0F062D" stroke-linecap="round" stroke-linejoin="round" stroke-width="2" d="m120.79 279.73 29.36-17.06-.11 35.7-29.35 17.06.1-35.7Z" class="Vector"/>
        <path fill="#fff" stroke="#0F062D" stroke-linecap="round" stroke-linejoin="round" stroke-width="2" d="m1.32 262.97 29.35-17.06 119.48 16.76-29.36 17.06L1.32 262.97Z" class="Vector"/>
      </g>
      <g class="Group">
        <path fill="#2C4BF3" stroke="#0F062D" stroke-linecap="round" stroke-linejoin="round" stroke-width="2" d="m245.53 292.31-83.48 223.57-34.85-20.12 83.48-223.57 34.85 20.12Z" class="Vector"/>
        <path fill="#fff" stroke="#0F062D" stroke-linecap="round" stroke-linejoin="round" stroke-width="2" d="m245.53 292.31 29.36-17.06-83.49 223.58-29.35 17.05 83.48-223.57Z" class="Vector"/>
        <path fill="#fff" stroke="#0F062D" stroke-linecap="round" stroke-linejoin="round" stroke-width="2" d="m210.68 272.19 29.36-17.06 34.85 20.12-29.36 17.06-34.85-20.12Z" class="Vector"/>
        <path fill="#EEE" stroke="#0F062D" stroke-linecap="round" stroke-linejoin="round" stroke-width="2" d="m205.78 396.94 29.35-17.06-8.25 21.56-29.36 17.06 8.26-21.56Zm-12.77 35.63 29.36-17.06-22.94 60.74-29.35 17.06 22.93-60.74Z" class="Vector"/>
      </g>
      <g class="Group">
        <path fill="#fff" stroke="#0F062D" stroke-linecap="round" stroke-linejoin="round" stroke-width="2" d="m249.54 471.47 29.36-17.06 83.59 7.58-29.36 17.06-83.59-7.58Z" class="Vector"/>
        <path fill="#2C4BF3" stroke="#0F062D" stroke-linecap="round" stroke-linejoin="round" stroke-width="2" d="m249.87 354.25 119.18 121.02-.14 48.97-119.47-16.76.1-36.01 83.59 7.58-83.36-89.09.1-35.71Z" class="Vector"/>
        <path fill="#fff" stroke="#0F062D" stroke-linecap="round" stroke-linejoin="round" stroke-width="2" d="m249.87 354.25 29.36-17.06L398.4 458.21l-29.35 17.06-119.18-121.02Z" class="Vector"/>
        <path fill="#fff" stroke="#0F062D" stroke-linecap="round" stroke-linejoin="round" stroke-width="2" d="m369.05 475.27 29.35-17.06-.14 48.97-29.35 17.06.14-48.97Z" class="Vector"/>
      </g>
    </g>
  </g>
</svg>
