<svg xmlns="http://www.w3.org/2000/svg" width="247" height="571" fill="none" viewBox="0 0 247 571">
  <g class="rocket-ship">
    <g class="platform">
      <g class="Vector">
        <path fill="#fff" d="M245.999 513.5c.103 14.274-11.736 28.553-35.556 39.445-47.634 21.785-125.11 21.785-173.053 0-20.974-9.529-32.818-21.652-35.521-34.096"/>
        <path stroke="#0F062D" stroke-linecap="round" stroke-linejoin="round" stroke-width="2" d="M245.999 513.5c.103 14.274-11.736 28.553-35.556 39.445-47.634 21.785-125.11 21.785-173.053 0-20.974-9.529-32.818-21.652-35.521-34.096"/>
      </g>
      <path fill="#fff" stroke="#0F062D" stroke-linecap="round" stroke-linejoin="round" stroke-width="2" d="M209.867 449.596c47.942 21.785 48.205 57.101.576 78.885-47.634 21.784-125.11 21.784-173.052 0-47.943-21.784-48.188-57.1-.554-78.885 47.635-21.784 125.094-21.784 173.036 0h-.006Z" class="Vector"/>
      <path stroke="#0F062D" stroke-linecap="round" stroke-linejoin="round" stroke-width="2" d="m1.276 489.036.593 29.808m244.13-29.808V513.5" class="Vector"/>
      <path fill="#fff" stroke="#0F062D" stroke-linecap="round" stroke-linejoin="round" stroke-width="2" d="M24.617 522.391a69.21 69.21 0 0 1-6.536-4.283v24.099a68.483 68.483 0 0 0 6.536 4.283c.69.399 1.397.776 2.098 1.152v-24.099a76.429 76.429 0 0 1-2.098-1.152Z" class="Vector"/>
      <path fill="#EEE" stroke="#0F062D" stroke-linecap="round" stroke-linejoin="round" stroke-width="2" d="M1.316 491.682v20.05c-.867 10.716 4.739 21.574 16.765 30.47v-24.1c-10.51-7.778-16.104-17.056-16.765-26.426v.006Z" class="Vector"/>
      <path fill="#EEE" stroke="#0F062D" stroke-linecap="round" stroke-linejoin="round" stroke-width="2" d="M1.316 491.682v-4.049a26.658 26.658 0 0 0 0 4.049Zm25.399 31.861v24.099a86.415 86.415 0 0 0 8.429 3.946v-24.099a88.083 88.083 0 0 1-8.429-3.946Z" class="Vector"/>
    </g>
    <g class="rocket">
      <g class="exhaust">
        <ellipse cx="124" cy="424" fill="url(#a)" rx="60" ry="64"/>
        <ellipse cx="124" cy="424" fill="url(#b)" fill-opacity=".2" rx="60" ry="64"/>
      </g>
      <g class="Group">
        <path fill="#34D1BF" stroke="#34D1BF" stroke-linecap="round" stroke-linejoin="round" stroke-width="2" d="m37.95 308.621-.348 122.727 38.618-7.42.268-93.061-38.539-22.246Z" class="Vector"/>
        <path fill="#fff" stroke="#34D1BF" stroke-linecap="round" stroke-linejoin="round" stroke-width="2" d="m76.22 423.929 4.807-2.795.268-93.056-4.807 2.789-.268 93.062Z" class="Vector"/>
        <path fill="#fff" stroke="#34D1BF" stroke-linecap="round" stroke-linejoin="round" stroke-width="2" d="m76.488 330.867 4.807-2.789-38.538-22.251-4.808 2.794 38.539 22.246Z" class="Vector"/>
      </g>
      <path fill="#2C4BF3" stroke="#0F062D" stroke-linecap="round" stroke-linejoin="round" stroke-width="2" d="m211.008 308.621.348 122.727-38.619-7.419-.262-93.062 38.533-22.246Z" class="Vector"/>
      <path fill="#fff" stroke="#0F062D" stroke-linecap="round" stroke-linejoin="round" stroke-width="2" d="m172.737 423.929-4.807-2.795-.262-93.055 4.807 2.788.262 93.062Z" class="Vector"/>
      <path fill="#0F062D" stroke="#0F062D" stroke-linecap="round" stroke-linejoin="round" stroke-width="2" d="m172.475 330.867-4.807-2.789 38.533-22.251 4.807 2.794-38.533 22.246Z" class="Vector"/>
      <path fill="#fff" stroke="#0F062D" stroke-linecap="round" stroke-linejoin="round" stroke-width="2" d="M177.83 160.118h.08c0-26.483-46.99-127.072-55.065-127.072-8.075 0-55.065 100.589-55.065 127.072h.063a16.816 16.816 0 0 0-.063 1.608v296.105c.034 8.172 5.457 16.344 16.253 22.577 21.573 12.454 56.433 12.46 77.869 0 10.716-6.228 16.048-14.388 16.002-22.554V161.772c0-.553-.029-1.101-.08-1.654h.006Z" class="Vector"/>
      <path fill="#EEE" stroke="#0F062D" stroke-linecap="round" stroke-linejoin="round" stroke-width="2" d="M67.848 176.873c-.701 8.685 4.7 17.518 16.196 24.156 21.573 12.455 56.439 12.455 77.875 0 10.716-6.227 16.048-14.388 16.002-22.554v-16.749c.046 8.161-5.281 16.327-16.002 22.554-21.436 12.455-56.302 12.455-77.875 0-11.49-6.637-16.897-15.465-16.196-24.156v16.749Z" class="Vector"/>
      <path fill="#fff" stroke="#0F062D" stroke-linecap="round" stroke-linejoin="round" stroke-width="2" d="M67.848 333.45c-.701 8.685 4.7 17.519 16.196 24.157 21.573 12.454 56.439 12.454 77.875 0 10.716-6.227 16.048-14.388 16.002-22.554v-16.749c.046 8.161-5.281 16.327-16.002 22.554-21.436 12.455-56.302 12.455-77.875 0-11.49-6.638-16.897-15.465-16.196-24.156v16.748Z" class="Vector"/>
      <path fill="#0F062D" stroke="#0F062D" stroke-linecap="round" stroke-linejoin="round" stroke-width="2" d="M67.848 350.034c-.701 8.685 4.7 17.518 16.196 24.156 21.573 12.455 56.439 12.455 77.875 0 10.716-6.227 16.048-14.388 16.002-22.554v-16.748c.046 8.16-5.281 16.326-16.002 22.554-21.436 12.454-56.302 12.454-77.875 0-11.49-6.638-16.897-15.466-16.196-24.157v16.749Zm0 107.54c-.701 8.686 4.7 17.519 16.196 24.157 21.573 12.454 56.439 12.454 77.875 0 10.716-6.228 16.048-14.388 16.002-22.554v-16.749c.046 8.161-5.281 16.327-16.002 22.554-21.436 12.455-56.302 12.455-77.875 0-11.49-6.638-16.897-15.465-16.196-24.156v16.748Z" class="Vector"/>
      <path fill="#EEE" stroke="#0F062D" stroke-linecap="round" stroke-linejoin="round" stroke-width="2" d="M67.848 440.837c-.701 8.685 4.7 17.519 16.196 24.157 21.573 12.454 56.439 12.454 77.875 0 10.716-6.228 16.048-14.388 16.002-22.554v-91.779c.046 8.161-5.281 16.327-16.002 22.554-21.436 12.455-56.302 12.455-77.875 0-11.49-6.638-16.897-15.466-16.196-24.156v91.778Z" class="Vector"/>
      <path fill="#0F062D" stroke="#0F062D" stroke-linecap="round" stroke-linejoin="round" stroke-width="2" d="M122.85 286.147c14.255 0 25.811-11.556 25.811-25.81 0-14.255-11.556-25.81-25.811-25.81-14.254 0-25.81 11.555-25.81 25.81 0 14.254 11.556 25.81 25.81 25.81Z" class="Vector"/>
      <path fill="#34D1BF" stroke="#34D1BF" stroke-linecap="round" stroke-linejoin="round" stroke-width="2" d="m144.007 274.302.28-.33a27.364 27.364 0 0 0 .638-.81c.132-.177.257-.359.382-.542.069-.097.143-.199.206-.296.154-.234.302-.468.445-.708.034-.051.068-.102.096-.153.172-.291.337-.588.497-.884.045-.086.085-.177.131-.263.108-.211.211-.427.313-.644.052-.114.103-.234.154-.354a11.719 11.719 0 0 0 .383-.963c.068-.189.136-.377.199-.565.046-.131.086-.268.126-.405.057-.188.108-.376.159-.564.034-.137.074-.274.109-.411.045-.194.091-.388.131-.582.028-.137.057-.273.08-.41.034-.206.068-.405.097-.61.017-.132.039-.263.057-.394.028-.228.045-.456.062-.684a6.38 6.38 0 0 0 .029-.337c.023-.342.034-.684.034-1.032l.063-7.904c0 .348-.012.69-.034 1.032-.006.114-.018.223-.029.337-.017.228-.04.456-.068.684-.018.131-.035.262-.057.394-.029.205-.063.41-.097.61-.023.137-.052.274-.08.41-.04.194-.08.388-.131.582l-.103.411c-.051.188-.103.382-.16.57a12.535 12.535 0 0 1-.325.969 9.52 9.52 0 0 1-.142.388c-.074.194-.16.388-.24.576-.051.12-.097.234-.154.354a13.94 13.94 0 0 1-.313.638c-.046.092-.086.177-.132.268-.154.297-.319.594-.496.884-.028.052-.062.097-.091.149a28.6 28.6 0 0 1-.451.712c-.068.103-.136.2-.205.297-.125.182-.251.365-.382.542-.08.108-.165.216-.251.325-.125.165-.256.325-.388.485-.091.114-.188.222-.279.33a14.64 14.64 0 0 1-.405.456c-.097.109-.2.217-.302.326-.143.148-.285.296-.428.439l-.314.313c-.131.126-.268.251-.404.377-.149.137-.297.273-.451.405-.137.119-.274.233-.41.347-.154.132-.314.257-.474.388a6.844 6.844 0 0 1-.331.251c-.439.337-.895.667-1.362.975-.052.034-.103.069-.16.097-.365.24-.741.468-1.124.69-.119.069-.245.143-.365.211-.319.177-.638.348-.969.519-.097.046-.188.097-.285.148-.394.194-.799.383-1.203.559-.086.04-.177.074-.268.109-.314.131-.628.262-.947.382-.154.057-.308.108-.456.165-.257.091-.508.183-.77.268-.171.057-.348.108-.519.166-.24.074-.473.148-.713.211a17.12 17.12 0 0 1-.553.148c-.234.063-.473.12-.713.177-.188.045-.376.085-.564.125-.246.051-.491.103-.736.148-.188.035-.376.074-.57.103a17.71 17.71 0 0 1-.782.12c-.182.028-.365.051-.547.08-.308.039-.622.068-.935.102-.154.017-.303.034-.457.046a32.696 32.696 0 0 1-2.743.108c-.233 0-.467-.011-.701-.017a32.234 32.234 0 0 1-1.317-.063c-.131-.011-.263-.017-.388-.028a30.173 30.173 0 0 1-1.893-.211l-.474-.069a38.08 38.08 0 0 1-.866-.148c-.177-.034-.348-.063-.525-.103a38.213 38.213 0 0 1-.884-.193c-.16-.04-.325-.075-.485-.115a16.966 16.966 0 0 1-.524-.142 25.14 25.14 0 0 1-.65-.183c-.177-.051-.348-.108-.519-.159-.211-.069-.417-.131-.628-.206a17.467 17.467 0 0 1-.513-.182c-.2-.074-.405-.148-.604-.228-.172-.069-.337-.131-.502-.2-.2-.08-.394-.165-.588-.245-.165-.074-.325-.142-.49-.222a18.685 18.685 0 0 1-.57-.268c-.16-.08-.32-.154-.474-.234-.188-.097-.37-.194-.558-.297-.154-.085-.308-.165-.457-.251-.182-.102-.359-.211-.536-.313a12.832 12.832 0 0 1-.439-.268c-.137-.086-.274-.177-.41-.263a50.31 50.31 0 0 1-.719-.484c-.125-.092-.257-.183-.382-.274-.24-.171-.473-.354-.701-.53-.103-.08-.206-.154-.303-.234a21.74 21.74 0 0 1-1.323-1.158l-.245-.228a21.89 21.89 0 0 1-1.021-1.049c-.034-.034-.062-.074-.097-.114a22.153 22.153 0 0 1-1.015-1.226 19.71 19.71 0 0 1-.496-.673c-.08-.114-.165-.234-.245-.354-.154-.222-.297-.45-.44-.678-.068-.109-.136-.217-.199-.326-.154-.262-.302-.53-.45-.804-.035-.068-.075-.131-.109-.199-.17-.331-.33-.667-.484-1.004-.04-.091-.075-.182-.114-.279-.103-.251-.211-.496-.303-.747-.051-.131-.09-.268-.136-.399-.075-.217-.149-.428-.217-.645-.046-.142-.08-.291-.12-.433-.057-.211-.12-.428-.171-.645a12.676 12.676 0 0 1-.097-.45 14.46 14.46 0 0 1-.126-.667c-.028-.154-.045-.303-.068-.457a15.535 15.535 0 0 1-.085-.718c-.018-.148-.029-.297-.04-.445a15.75 15.75 0 0 1-.04-.907c0-.142-.012-.279-.012-.422l-.062 7.904v.166c0 .085.011.171.011.256.006.302.017.605.04.907 0 .057 0 .114.006.171.005.091.022.177.034.268.023.24.051.479.085.719.012.079.017.165.029.245.011.068.028.142.04.211.04.222.08.445.131.667.023.097.034.194.057.291.011.051.029.102.04.154.051.216.108.433.171.644.029.109.051.217.086.325a30.175 30.175 0 0 0 .251.759c.04.108.068.222.108.33a.353.353 0 0 0 .028.069c.092.251.2.502.303.747.034.085.068.171.102.251 0 .006.006.017.012.023.148.342.313.673.484 1.003 0 .006.006.012.012.023.028.057.068.114.097.177.142.274.29.542.45.81.017.022.029.051.046.074.051.085.108.165.16.245.142.228.285.456.439.679.034.045.057.097.091.142l.154.205c.159.229.325.451.496.673.051.069.097.137.148.2.034.046.074.086.109.125.245.303.496.605.758.896.029.028.051.063.08.097 0 .005.011.011.017.017.325.359.667.707 1.021 1.049.04.04.074.08.119.12.04.04.086.074.126.108.422.399.867.787 1.323 1.158.023.017.04.04.063.057.074.063.159.12.239.182.228.183.462.36.702.531.125.091.251.182.382.273.234.166.473.325.713.485.079.051.159.109.239.166l.171.102c.143.091.291.177.439.268.177.109.359.211.542.314.148.085.302.171.456.251.183.097.371.199.553.291.16.079.314.159.474.233.188.092.382.183.57.274.16.074.325.148.485.217.194.085.393.165.593.251.165.068.33.137.502.199.199.08.404.154.604.228.171.063.342.126.513.183l.628.205a25.115 25.115 0 0 0 1.169.342c.171.046.347.097.524.143.052.011.097.028.149.04.114.028.228.051.342.074.291.068.587.137.884.194l.524.103c.285.051.576.102.867.148l.302.051.171.017c.622.086 1.255.16 1.894.211.04 0 .079.012.119.012.092.005.183.005.268.011.434.029.873.051 1.318.063.091 0 .182.011.273.011h.474c.41 0 .815 0 1.22-.017h.029c.49-.017.975-.046 1.454-.085h.085c.126-.012.246-.029.371-.04.314-.029.627-.063.935-.103l.171-.017c.132-.017.257-.04.382-.057.263-.04.519-.074.776-.12l.228-.034.342-.069c.245-.045.496-.096.742-.148.091-.017.182-.034.268-.057.097-.023.194-.051.29-.074.24-.057.48-.114.713-.177.103-.028.206-.051.308-.074.08-.023.16-.051.24-.074.239-.068.479-.143.713-.211.114-.034.228-.063.342-.103.063-.017.12-.045.182-.062.257-.086.513-.177.77-.268l.348-.12a.662.662 0 0 0 .108-.046c.32-.125.639-.251.953-.388.074-.034.154-.062.233-.091.012 0 .023-.011.029-.017.411-.177.81-.365 1.209-.564l.068-.035c.075-.034.137-.074.211-.114.331-.165.65-.342.97-.519.063-.034.125-.062.182-.097.063-.034.12-.074.177-.108.382-.222.759-.456 1.124-.696.039-.028.085-.051.125-.074.011-.006.017-.017.028-.023a25.73 25.73 0 0 0 1.363-.975c.046-.034.103-.068.149-.108.062-.046.119-.097.182-.148.16-.126.314-.257.473-.383.137-.114.274-.228.411-.347.154-.132.302-.268.451-.405.085-.074.171-.149.256-.228.052-.052.103-.103.154-.149.109-.102.211-.205.314-.313.142-.149.285-.291.428-.439.102-.109.199-.217.302-.325.137-.154.274-.303.405-.457l-.012.017Z" class="Vector"/>
      <path fill="#34D1BF" stroke="#34D1BF" stroke-linecap="round" stroke-linejoin="round" stroke-width="2" d="M158.686 254.275c0-.12-.011-.24-.017-.359a32.366 32.366 0 0 0-.057-1.255c-.006-.08 0-.16-.012-.239-.011-.126-.034-.251-.045-.377a26.346 26.346 0 0 0-.12-.992c-.017-.114-.023-.228-.04-.342-.017-.097-.04-.194-.057-.297a25.293 25.293 0 0 0-.177-.929c-.028-.137-.045-.274-.079-.411-.018-.074-.04-.142-.058-.217-.068-.302-.153-.598-.233-.895-.04-.148-.074-.302-.12-.45a4.252 4.252 0 0 0-.051-.149c-.092-.302-.194-.593-.297-.889-.051-.154-.097-.314-.154-.462-.011-.034-.028-.063-.04-.092-.131-.347-.274-.69-.416-1.032-.051-.119-.091-.239-.143-.353 0-.012-.011-.023-.017-.034a30.853 30.853 0 0 0-.667-1.398c0-.011-.006-.017-.011-.028-.04-.08-.092-.16-.132-.24-.199-.376-.41-.752-.627-1.123-.023-.034-.04-.074-.057-.108-.068-.114-.148-.229-.222-.343a26.007 26.007 0 0 0-.605-.941c-.045-.062-.08-.131-.125-.199-.069-.097-.143-.194-.211-.291a36.262 36.262 0 0 0-.69-.935c-.069-.091-.131-.188-.206-.28-.045-.062-.102-.119-.154-.176a29.766 29.766 0 0 0-1.043-1.232c-.04-.046-.074-.091-.114-.137l-.023-.023a33.94 33.94 0 0 0-1.414-1.454c-.057-.057-.109-.114-.16-.165-.12-.114-.245-.223-.365-.331-.148-.137-.302-.28-.456-.416-.222-.2-.451-.394-.679-.588-.148-.125-.302-.256-.456-.382-.051-.04-.097-.085-.148-.125-.109-.086-.223-.166-.325-.251-.32-.251-.645-.496-.975-.736l-.531-.376a29.595 29.595 0 0 0-.992-.667c-.114-.075-.222-.154-.336-.223a5.02 5.02 0 0 0-.24-.142c-.2-.126-.405-.251-.61-.371a30.471 30.471 0 0 0-.747-.439c-.211-.12-.422-.234-.639-.354-.256-.137-.507-.274-.77-.405-.216-.114-.439-.222-.661-.33-.263-.126-.525-.251-.793-.377-.222-.102-.45-.205-.678-.302-.269-.12-.542-.234-.816-.342a40.444 40.444 0 0 0-.696-.28 47.457 47.457 0 0 0-1.551-.564c-.285-.097-.576-.188-.867-.285-.239-.074-.479-.154-.718-.223a24.428 24.428 0 0 0-.901-.251c-.24-.062-.479-.131-.719-.194-.068-.017-.131-.039-.199-.051-.154-.04-.32-.068-.474-.108a43.68 43.68 0 0 0-1.226-.274 45.345 45.345 0 0 0-1.927-.348c-.143-.023-.28-.051-.422-.074-.143-.023-.291-.034-.434-.057-.211-.028-.422-.057-.633-.08-.353-.045-.712-.08-1.072-.114-.205-.017-.41-.04-.616-.057-.091-.006-.176-.017-.268-.023-.125-.011-.251-.011-.376-.017a47.596 47.596 0 0 0-1.831-.085c-.125 0-.25-.017-.382-.017-.199 0-.393-.006-.593-.006-.587 0-1.174.006-1.756.028h-.04c-.679.023-1.346.063-2.013.12-.04 0-.08 0-.12.006-.177.017-.342.04-.519.057-.433.04-.861.085-1.289.137-.079.011-.159.017-.233.023-.183.022-.36.057-.536.085-.36.051-.719.108-1.078.165-.103.018-.211.029-.314.046-.16.029-.313.063-.473.097-.342.063-.685.131-1.021.205-.125.029-.251.046-.376.074-.137.029-.268.069-.405.103-.331.08-.662.16-.992.245-.143.035-.286.069-.428.109-.114.028-.223.068-.331.097a50.35 50.35 0 0 0-.998.296l-.468.137c-.085.028-.165.057-.25.086-.36.119-.713.245-1.061.37-.16.057-.325.109-.485.171-.051.017-.103.046-.154.063-.445.171-.884.348-1.317.536-.108.046-.217.086-.325.131a.198.198 0 0 0-.046.023c-.57.245-1.123.508-1.671.781l-.097.046c-.102.051-.194.108-.296.16a36.84 36.84 0 0 0-1.346.718l-.257.137c-.085.051-.165.103-.251.154-.53.308-1.049.627-1.556.958-.057.04-.12.074-.183.114-.023.017-.045.029-.068.046-.103.068-.2.137-.297.205-.308.211-.61.422-.912.639-.143.102-.28.205-.416.308-.149.114-.303.222-.451.336-.086.069-.165.137-.251.205-.222.177-.44.354-.65.531a30.942 30.942 0 0 0-1.192 1.043c-.114.109-.24.211-.353.32-.075.068-.137.142-.211.211-.149.142-.291.285-.434.427-.2.206-.4.405-.599.616-.142.148-.28.297-.416.451-.188.211-.376.422-.559.638-.131.154-.262.303-.388.462-.182.223-.359.451-.536.679l-.348.45c-.182.246-.359.497-.53.753a22.278 22.278 0 0 0-.907 1.403c-.045.069-.09.137-.13.211-.24.405-.468.81-.685 1.226-.063.12-.12.245-.183.371-.148.296-.296.587-.433.889-.074.16-.142.325-.21.485-.115.268-.229.53-.337.804-.069.177-.137.354-.2.536-.097.257-.188.519-.274.782-.063.188-.12.376-.177.558-.08.263-.154.519-.222.787a19.28 19.28 0 0 0-.325 1.375c-.04.188-.08.376-.114.57-.051.279-.091.565-.137.85-.028.182-.057.359-.08.541-.04.314-.063.633-.091.947-.011.154-.028.308-.04.468-.028.473-.046.952-.046 1.431l-.062 7.904c0-.479.017-.958.045-1.431.012-.154.029-.308.04-.468.029-.319.052-.633.092-.947.022-.182.05-.365.08-.547.04-.285.085-.565.136-.85a40.578 40.578 0 0 1 .29-1.374c.047-.194.098-.382.15-.57.068-.263.148-.525.222-.787.057-.189.114-.377.177-.559.085-.263.182-.525.273-.782.069-.176.132-.359.2-.536.108-.268.222-.536.336-.804.069-.159.137-.325.211-.484.137-.303.285-.599.434-.896.063-.119.12-.245.182-.365.217-.416.445-.821.685-1.226.04-.068.085-.137.125-.205.2-.331.41-.667.627-.992.092-.137.189-.274.285-.411.177-.251.354-.507.536-.753.115-.154.234-.302.348-.45.177-.228.354-.456.536-.679.126-.154.257-.308.388-.456.183-.217.37-.428.559-.639.137-.148.274-.302.416-.45a30.095 30.095 0 0 1 1.032-1.044l.565-.53c.205-.188.41-.377.616-.559.188-.165.382-.325.576-.485.217-.176.428-.353.65-.53a33.9 33.9 0 0 1 .707-.542c.137-.102.274-.205.416-.308.297-.216.6-.427.907-.633.103-.068.2-.142.302-.211.08-.051.166-.102.246-.154a36.15 36.15 0 0 1 2.064-1.249c.439-.245.89-.484 1.34-.718l.394-.205a40.43 40.43 0 0 1 1.67-.782c.12-.051.24-.097.36-.148.439-.182.878-.365 1.323-.536.211-.08.422-.154.638-.234.354-.125.708-.256 1.067-.37.239-.08.479-.154.718-.229.331-.102.662-.205.998-.296.251-.069.508-.137.759-.205.331-.086.661-.172.992-.246.257-.062.519-.119.781-.176.337-.075.679-.143 1.021-.206.262-.051.525-.097.787-.142.354-.063.719-.114 1.078-.166.256-.04.513-.074.77-.108.427-.051.855-.097 1.288-.137.217-.023.428-.045.639-.063a45.8 45.8 0 0 1 3.81-.148c.325 0 .65.017.975.023a49.65 49.65 0 0 1 1.83.085c.217.018.434.023.645.046.205.017.41.04.616.057.359.034.718.074 1.072.114.211.029.422.051.633.08.285.04.57.086.855.131.399.063.798.131 1.198.205.245.046.49.092.735.143.411.086.816.177 1.221.274.228.051.456.102.684.159.239.063.479.126.718.194.303.086.611.166.907.257.24.068.479.148.713.222.291.092.582.189.873.285.239.08.473.166.707.251.279.103.564.206.838.314.234.091.468.183.696.279.273.115.547.229.815.343.228.097.456.199.679.302.268.12.53.245.792.376.223.109.44.217.662.331.257.131.513.268.77.405.211.114.428.234.639.353.25.143.501.291.747.44a21.97 21.97 0 0 1 1.18.741c.336.217.667.439.992.667l.531.376c.33.24.655.491.975.742.159.125.319.245.473.371.154.125.302.25.451.382.228.193.456.387.678.587.154.137.302.274.451.411.177.165.353.33.53.501.49.474.964.953 1.414 1.455.046.051.092.108.143.159.359.405.707.816 1.043 1.232.12.154.24.302.36.456.239.308.467.622.69.935.114.16.228.326.342.485.211.308.411.622.604.941.092.148.189.297.28.451.217.37.428.741.627 1.117.046.092.103.177.148.268.24.457.462.924.668 1.398.057.131.108.262.159.393.143.342.291.684.417 1.032.068.183.125.371.193.553.103.297.206.593.297.896.063.199.114.399.165.598.08.297.166.594.234.896.051.205.091.416.137.621a23.142 23.142 0 0 1 .394 2.561c.022.205.039.41.057.616.028.416.045.832.057 1.254 0 .194.017.388.017.582l.062-7.904v-.228l-.011-.017Z" class="Vector"/>
      <path fill="#89EFDB" stroke="#34D1BF" stroke-linecap="round" stroke-linejoin="round" stroke-width="2" d="m87.01 262.07.062-7.903c.023-7.231 3.268-13.835 8.623-18.905l-.063 7.904c-5.355 5.075-8.6 11.673-8.623 18.904Zm13.281-30.441-.063 7.904a35.11 35.11 0 0 1 1.985-1.22c.615-.354 1.248-.69 1.899-1.015l.062-7.904c-.644.319-1.277.662-1.899 1.015-.678.388-1.34.798-1.984 1.22Zm37.443 39.953c-.444.257-.901.496-1.368.73l-.063 7.904a25.79 25.79 0 0 0 1.369-.73c.49-.279.964-.576 1.431-.878l.063-7.904a23.59 23.59 0 0 1-1.432.878Zm4.671 4.403.063-7.904c3.86-3.655 6.198-8.417 6.215-13.629l-.062 7.904c-.017 5.212-2.356 9.973-6.216 13.629Z" class="Vector"/>
      <path fill="#fff" stroke="#0F062D" stroke-linecap="round" stroke-linejoin="round" stroke-width="2" d="M122.896 233.055c19.777.091 35.773 13.23 35.727 29.352-.045 16.121-16.11 29.118-35.892 29.021-19.771-.092-35.767-13.231-35.722-29.358.046-16.127 16.11-29.112 35.887-29.02v.005Zm-.142 50.223c14.256.069 25.833-9.295 25.867-20.917.034-11.616-11.497-21.094-25.748-21.157-14.251-.068-25.827 9.301-25.861 20.918-.034 11.622 11.491 21.094 25.742 21.156Zm-38.716 57.58a46.9 46.9 0 0 1-4.539-2.977v16.749a47.087 47.087 0 0 0 4.54 2.977c.478.274.969.536 1.46.804v-16.749c-.491-.262-.982-.524-1.46-.804Z" class="Vector"/>
      <path fill="#EEE" stroke="#0F062D" stroke-linecap="round" stroke-linejoin="round" stroke-width="2" d="M67.848 319.513v13.937c-.604 7.448 3.296 14.993 11.65 21.18v-16.749c-7.304-5.406-11.194-11.85-11.65-18.362v-.006Z" class="Vector"/>
      <path fill="#0F062D" stroke="#0F062D" stroke-linecap="round" stroke-linejoin="round" stroke-width="2" d="M67.849 319.513v-2.811a18.51 18.51 0 0 0 0 2.811Z" class="Vector"/>
      <path fill="#EEE" stroke="#0F062D" stroke-linecap="round" stroke-linejoin="round" stroke-width="2" d="M85.498 341.656v16.749a60.536 60.536 0 0 0 5.857 2.743v-16.749a60.3 60.3 0 0 1-5.857-2.743Z" class="Vector"/>
      <path fill="#fff" stroke="#0F062D" stroke-linecap="round" stroke-linejoin="round" stroke-width="2" d="M84.038 184.28a46.895 46.895 0 0 1-4.539-2.976v16.748a46.713 46.713 0 0 0 4.54 2.977c.478.274.969.536 1.46.804v-16.748c-.491-.263-.982-.525-1.46-.805Z" class="Vector"/>
      <path fill="#EEE" stroke="#0F062D" stroke-linecap="round" stroke-linejoin="round" stroke-width="2" d="M67.848 162.936v13.937c-.604 7.447 3.296 14.992 11.65 21.179v-16.748c-7.304-5.406-11.194-11.85-11.65-18.363v-.005Z" class="Vector"/>
      <path fill="#0F062D" stroke="#0F062D" stroke-linecap="round" stroke-linejoin="round" stroke-width="2" d="M67.849 162.935v-2.811a18.51 18.51 0 0 0 0 2.811Z" class="Vector"/>
      <path fill="#EEE" stroke="#0F062D" stroke-linecap="round" stroke-linejoin="round" stroke-width="2" d="M85.498 185.079v16.749a60.775 60.775 0 0 0 5.857 2.743v-16.749a60.536 60.536 0 0 1-5.857-2.743Z" class="Vector"/>
      <g class="Group">
        <path fill="#0C0523" d="m42.768 528.858-4.02-2.339 37.637-50.816 4.02 2.333-37.637 50.822Z" class="Vector"/>
        <g class="Group">
          <g class="Clip path group">
            <mask id="c" width="6" height="4" x="37" y="527" class="c" maskUnits="userSpaceOnUse" style="mask-type:luminance">
              <g class="clippath">
                <path fill="#fff" d="m42.021 530.352-4.02-2.338c-.051-.029-.063-.086-.063-.154l4.02 2.338c0 .068.012.125.063.154Z" class="Vector"/>
              </g>
            </mask>
            <g class="Group" mask="url(#c)">
              <g class="Group">
                <path fill="#080317" d="m42.021 530.352-4.02-2.339s-.034-.028-.046-.051l4.02 2.338s.023.04.046.052Z" class="Vector"/>
                <path fill="#080318" d="m41.976 530.3-4.02-2.338s-.006-.017-.012-.028l4.02 2.338s0 .023.012.028Z" class="Vector"/>
                <path fill="#080319" d="m41.964 530.272-4.02-2.338v-.029l4.02 2.338v.029Z" class="Vector"/>
                <path fill="#09031A" d="m41.959 530.238-4.02-2.338v-.04l4.02 2.338v.04Z" class="Vector"/>
                <path fill="#09041B" d="m41.959 530.198-4.02-2.333v-.005l4.02 2.338Z" class="Vector"/>
              </g>
            </g>
          </g>
        </g>
        <path fill="#0A041E" d="m80.406 478.035-4.02-2.332-.263-92.349 4.02 2.338.263 92.343Z" class="Vector"/>
        <g class="Group">
          <g class="Clip path group">
            <mask id="d" width="5" height="3" x="76" y="382" class="d" maskUnits="userSpaceOnUse" style="mask-type:luminance">
              <g class="clippath-1">
                <path fill="#fff" d="m80.548 384.529-4.02-2.338c.108-.063.205-.068.285-.028l4.02 2.338c-.074-.046-.176-.035-.285.028Z" class="Vector"/>
              </g>
            </mask>
            <g class="Group" mask="url(#d)">
              <g class="Group">
                <path fill="#09041C" d="m80.549 384.529-4.02-2.338s.016-.011.022-.011l4.02 2.338s-.017.005-.022.011Z" class="Vector"/>
                <path fill="#09041B" d="m80.571 384.518-4.02-2.338.04-.017 4.02 2.338-.04.017Z" class="Vector"/>
                <path fill="#09031A" d="m80.611 384.495-4.02-2.338s.029-.012.04-.012l4.02 2.338s-.028.006-.04.012Z" class="Vector"/>
                <path fill="#080319" d="m80.651 384.483-4.02-2.338s.028-.005.046-.005l4.02 2.338s-.029 0-.046.005Z" class="Vector"/>
                <path fill="#080318" d="m80.697 384.478-4.02-2.338h.05l4.021 2.338h-.051Z" class="Vector"/>
                <path fill="#080317" d="m80.748 384.478-4.02-2.338c.028 0 .057.011.08.028l4.02 2.338s-.051-.023-.08-.028Z" class="Vector"/>
              </g>
            </g>
          </g>
        </g>
        <path fill="#B1B1B1" d="m42.426 407.465-4.02-2.332 37.717-21.779 4.02 2.338-37.717 21.773Z" class="Vector"/>
        <path fill="#A8A8A8" d="m42.768 528.858-4.02-2.339-.342-121.386 4.02 2.332.342 121.393Z" class="Vector"/>
        <path fill="#E4E4E4" d="m80.144 385.692.262 92.343-37.638 50.822-.342-121.392 37.718-21.773Z" class="Vector"/>
        <path fill="#0A041E" d="m41.959 530.198-4.02-2.339-.349-122.721 4.02 2.333.349 122.727Z" class="Vector"/>
        <path fill="#0A041F" d="M42.016 406.775 38 404.437l38.527-22.246 4.02 2.338-38.532 22.246Z" class="Vector"/>
        <g class="Group">
          <g class="Clip path group">
            <mask id="e" width="6" height="4" x="37" y="404" class="e" maskUnits="userSpaceOnUse" style="mask-type:luminance">
              <g class="clippath-2">
                <path fill="#fff" d="m41.73 407.077-4.02-2.338a.815.815 0 0 1 .285-.302l4.02 2.338a.815.815 0 0 0-.285.302Z" class="Vector"/>
              </g>
            </mask>
            <g class="Group" mask="url(#e)">
              <g class="Group">
                <path fill="#0B0420" d="m41.73 407.077-4.02-2.338a1.1 1.1 0 0 1 .114-.159l4.02 2.338a1.1 1.1 0 0 0-.114.159Z" class="Vector"/>
                <path fill="#0A041F" d="m41.844 406.918-4.02-2.338s.04-.046.063-.063l4.02 2.338-.063.063Z" class="Vector"/>
                <path fill="#0A041E" d="m41.907 406.855-4.02-2.338s.034-.029.051-.04l4.02 2.338-.05.04Z" class="Vector"/>
                <path fill="#0A041D" d="m41.953 406.815-4.02-2.338s.028-.023.045-.029l4.02 2.338-.045.029Z" class="Vector"/>
                <path fill="#09041C" d="m41.998 406.781-4.02-2.338s.011-.006.017-.012l4.02 2.338-.017.012Z" class="Vector"/>
              </g>
            </g>
          </g>
        </g>
        <g class="Group">
          <g class="Clip path group">
            <mask id="f" width="5" height="4" x="37" y="404" class="f" maskUnits="userSpaceOnUse" style="mask-type:luminance">
              <g class="clippath-3">
                <path fill="#fff" d="m41.61 407.471-4.02-2.338a.83.83 0 0 1 .12-.394l4.02 2.338a.827.827 0 0 0-.12.394Z" class="Vector"/>
              </g>
            </mask>
            <g class="Group" mask="url(#f)">
              <g class="Group">
                <path fill="#09041B" d="m41.61 407.471-4.02-2.338v-.046l4.02 2.338v.046Z" class="Vector"/>
                <path fill="#09041C" d="m41.61 407.425-4.02-2.338s0-.034.006-.051l4.02 2.338s0 .034-.005.051Z" class="Vector"/>
                <path fill="#0A041D" d="m41.622 407.374-4.02-2.338s.006-.04.011-.057l4.02 2.338s-.005.04-.01.057Z" class="Vector"/>
                <path fill="#0A041E" d="m41.634 407.317-4.02-2.338s.01-.046.016-.063l4.02 2.338s-.01.046-.016.063Z" class="Vector"/>
                <path fill="#0A041F" d="m41.65 407.254-4.02-2.338.034-.085 4.02 2.338-.033.085Z" class="Vector"/>
                <path fill="#0B0420" d="m41.685 407.169-4.02-2.338c.011-.035.028-.063.045-.092l4.02 2.338a.689.689 0 0 0-.045.092Z" class="Vector"/>
              </g>
            </g>
          </g>
        </g>
        <path fill="#0D0528" d="M80.834 384.501c.074.045.12.131.12.256l.262 93.056a.888.888 0 0 1-.177.49l-38.447 51.912c-.548.256-.633.148-.633-.023l-.348-122.727c0-.12.045-.268.12-.393a.811.811 0 0 1 .285-.303l38.527-22.246c.108-.062.205-.068.285-.028l.005.006Zm-.422 93.534-.263-92.348-37.717 21.778.342 121.387 37.638-50.817Z" class="Vector"/>
      </g>
      <g class="Group">
        <path fill="#0F062D" stroke="#0F062D" stroke-linecap="round" stroke-linejoin="round" stroke-width="2" d="m42.757 530.203-4.808-2.794-.347-122.727 4.807 2.795.348 122.726Zm-.348-122.726-4.807-2.795 38.532-22.246 4.808 2.795-38.533 22.246Z" class="Vector"/>
        <path fill="#2C4BF3" stroke="#0F062D" stroke-linecap="round" stroke-linejoin="round" stroke-width="2" d="m80.942 385.231.262 93.061-38.447 51.912-.348-122.727 38.533-22.246Z" class="Vector"/>
      </g>
      <g class="Group">
        <path fill="#34D1BF" stroke="#34D1BF" stroke-linecap="round" stroke-linejoin="round" stroke-width="2" d="m168.015 385.231-.262 93.061 38.447 51.912.348-122.727-38.533-22.246Z" class="Vector"/>
        <path fill="#fff" stroke="#34D1BF" stroke-linecap="round" stroke-linejoin="round" stroke-width="2" d="m206.2 530.203 4.808-2.794.348-122.727-4.808 2.795-.348 122.726Zm.348-122.726 4.808-2.795-38.533-22.246-4.807 2.795 38.532 22.246Z" class="Vector"/>
      </g>
      <g class="fuel-gauge">
        <path fill="#41D0CB" fill-opacity=".5" d="M120 405s2.761 1.042 5 1.042 6-1.042 6-1.042v52h-11v-52Z" class="fuel"/>
        <path stroke="#24254D" stroke-linecap="round" stroke-linejoin="round" stroke-width="2" d="M120 405.134c3.498 1.148 7 .866 10.5-.134v51.378c-3.5 1.122-7.017 1.167-10.5.135v-51.379Z" class="Vector"/>
        <path stroke="#232A54" d="M121 443.878h3" class="Line 1"/>
        <path stroke="#232A54" d="M121 428.878h3" class="Line 2"/>
        <path stroke="#232A54" d="M121 414.878h3" class="Line 3"/>
      </g>
    </g>
    <g class="embellishment">
      <g class="stars">
        <g class="star">
          <path stroke="#000" stroke-linecap="round" stroke-width="2" d="m25.354 198.293 10 10" class="Line 4"/>
          <path stroke="#000" stroke-linecap="round" stroke-width="2" d="m35.353 198-10 10" class="Line 5"/>
        </g>
        <g class="star">
          <path stroke="#000" stroke-linecap="round" stroke-width="2" d="m202 246.234 6 6" class="Line 4"/>
          <path stroke="#000" stroke-linecap="round" stroke-width="2" d="m208 246.058-6 6" class="Line 5"/>
        </g>
        <g class="star">
          <path stroke="#000" stroke-linecap="round" stroke-width="2" d="m190 95.293 10 10" class="Line 4"/>
          <path stroke="#000" stroke-linecap="round" stroke-width="2" d="m200 95-10 10" class="Line 5"/>
        </g>
        <g class="star">
          <path stroke="#000" stroke-linecap="round" stroke-width="2" d="M49.563 77.455 54.437 83" class="Line 4"/>
          <path stroke="#000" stroke-linecap="round" stroke-width="2" d="m54.437 77.293-4.874 5.544" class="Line 5"/>
        </g>
      </g>
      <g class="speed-lines">
        <path fill="#000" fill-rule="evenodd" d="M207 159a1 1 0 0 1 1 1v31a1 1 0 0 1-2 0v-31a1 1 0 0 1 1-1Z" class="speed-line 5" clip-rule="evenodd"/>
        <path fill="#000" fill-rule="evenodd" d="M81 0a1 1 0 0 1 1 1v31a1 1 0 1 1-2 0V1a1 1 0 0 1 1-1Z" class="speed-line 4" clip-rule="evenodd"/>
        <path fill="#000" fill-rule="evenodd" d="M42 124a1 1 0 0 1 1 1v31a1 1 0 0 1-2 0v-31a1 1 0 0 1 1-1Z" class="speed-line 3" clip-rule="evenodd"/>
        <path fill="#000" fill-rule="evenodd" d="M168 33a1 1 0 0 1 1 1v24a1 1 0 0 1-2 0V34a1 1 0 0 1 1-1Z" class="speed-line 2" clip-rule="evenodd"/>
        <path fill="#000" fill-rule="evenodd" d="M34 238a1 1 0 0 1 1 1v21a1 1 0 0 1-2 0v-21a1 1 0 0 1 1-1Z" class="speed-line 1" clip-rule="evenodd"/>
      </g>
    </g>
    <path fill="url(#g)" d="M245.999 116.037s-.102 358.725 0 373.005c.103 14.273-11.736 28.553-35.556 39.445-47.634 21.784-125.11 21.784-173.053 0-23.973-10.892-36.017-25.166-36.12-39.445-.097-14.274 0-373.005 0-373.005h244.729Z" class="platform-glow" opacity=".25"/>
  </g>
  <defs>
    <radialGradient id="a" cx="0" cy="0" r="1" class="a" gradientTransform="matrix(0 64 -60 0 124 424)" gradientUnits="userSpaceOnUse">
      <stop stop-color="#34D1BF"/>
      <stop offset="1" stop-color="#34D1BF" stop-opacity="0"/>
    </radialGradient>
    <radialGradient id="b" cx="0" cy="0" r="1" class="b" gradientTransform="matrix(0 64 -60 0 124 424)" gradientUnits="userSpaceOnUse">
      <stop offset=".26" stop-color="#34D1BF"/>
      <stop offset="1" stop-color="#34D1BF" stop-opacity="0"/>
      <stop offset="1" stop-opacity="0"/>
    </radialGradient>
    <linearGradient id="g" x1="123.615" x2="123.615" y1="544.819" y2="116.037" class="g" gradientUnits="userSpaceOnUse">
      <stop stop-color="#53B7FF"/>
      <stop offset="1" stop-color="#fff" stop-opacity="0"/>
    </linearGradient>
  </defs>
</svg>
