<svg xmlns="http://www.w3.org/2000/svg" width="533" height="618" fill="none" viewBox="0 0 533 618">
  <g class="magnifying-glass-group">
    <path fill="#fff" stroke="#0F062D" stroke-linecap="round" stroke-linejoin="round" stroke-width="2" d="M327.18 452.14c74.46 29.91 74.86 78.4.89 108.32-73.97 29.91-194.3 29.91-268.75 0-74.46-29.91-74.83-78.4-.86-108.32 73.97-29.91 194.27-29.91 268.72 0Z" class="Vector" />
    <path stroke="#0F062D" stroke-linecap="round" stroke-linejoin="round" stroke-width="2" d="m3.22 506.3.93 40.92m379.13-40.93v33.59c.16 19.6-18.23 39.2-55.21 54.16-73.97 29.91-194.3 29.91-268.75 0-32.57-13.09-50.97-29.73-55.16-46.82" class="Vector" />
    <path fill="#2C4BF3" stroke="#0F062D" stroke-linecap="round" stroke-linejoin="round" stroke-width="2" d="M3.29 509.93v-5.56c-.17 1.85-.15 3.71 0 5.56Z" class="Vector" />
    <path fill="#2C4BF3" stroke="#0F062D" stroke-linecap="round" stroke-linejoin="round" stroke-width="2" d="M3.29 506.3v31.16c-1.34 14.71 7.36 29.62 26.04 41.84 3.11 2.04 6.47 4.01 10.15 5.88 1.07.54 2.17 1.06 3.26 1.58 4.17 1.98 8.55 3.79 13.09 5.42v-33.09c-40.54-17.03-51.67-37.22-52.53-52.8l-.01.01Z" class="Vector" />
    <g class="Group" opacity=".5">
      <path fill="url(#a)" d="M336.8 0s-.13 483.8 0 498.84c.12 15.05-13.99 30.09-42.38 41.57-56.78 22.96-149.14 22.96-206.29 0-28.58-11.48-42.94-26.53-43.06-41.57-.12-15.05 0-498.84 0-498.84H336.8Z" class="Vector" />
    </g>
    <path fill="#EEE" stroke="#0F062D" stroke-linecap="round" stroke-linejoin="round" stroke-width="2" d="m249.75 580.11-.14 32.62c12.45-1.99 24.59-2.75 36.18-6.07l.14-32.62c-11.59 3.32-23.73 4.09-36.18 6.07Z" class="Vector" />
    <g class="magnifying-glass">
      <g class="Group">
        <path fill="#fff" stroke="#0F062D" stroke-linecap="round" stroke-linejoin="round" stroke-width="2" d="M198.34 185.43c-5.21-.11-10.42-.09-15.62.06l-.14 43.98c5.2-.16 10.42-.18 15.62-.06 5.02.11 10.04.35 15.02.71l.14-43.98c-4.99-.36-10-.6-15.02-.71Zm-114.3 22.81c-.63.32-1.25.65-1.86.97-7.41 3.94-13.85 8.18-19.32 12.65-3.57 2.91-6.72 5.92-9.46 8.99a64.416 64.416 0 0 0-6.14 8.06c-1.61 2.52-2.97 5.08-4.06 7.67a43.847 43.847 0 0 0-2.46 7.59 40.825 40.825 0 0 0-1.02 8.92l-.14 43.98c0-.39 0-.79.02-1.18.08-2.58.42-5.17 1-7.74.58-2.55 1.4-5.08 2.46-7.59 1.1-2.58 2.45-5.14 4.06-7.67 1.74-2.73 3.79-5.42 6.14-8.06 2.74-3.08 5.89-6.08 9.46-8.99 5.47-4.46 11.91-8.71 19.32-12.65.61-.33 1.23-.65 1.86-.97 10.17-5.23 21.44-9.56 33.42-12.99 9.25-2.65 18.94-4.77 28.88-6.36l.14-43.98c-9.94 1.59-19.62 3.7-28.88 6.36-11.99 3.44-23.25 7.77-33.42 12.99Z" class="Vector" />
        <path fill="#EEE" stroke="#0F062D" stroke-linecap="round" stroke-linejoin="round" stroke-width="2" d="M299.75 208.24c-6.88-3.51-14.26-6.62-22-9.33-5.97-2.08-12.16-3.93-18.52-5.53-5.2-1.31-10.51-2.46-15.91-3.45-4.97-.91-10.02-1.69-15.12-2.33-4.9-.61-9.85-1.1-14.83-1.47l-.14 43.98c4.98.36 9.93.85 14.83 1.47 5.1.64 10.15 1.41 15.12 2.33 5.4.99 10.71 2.14 15.91 3.45 6.36 1.6 12.55 3.45 18.52 5.53 7.75 2.7 15.12 5.81 22 9.33 30.07 15.35 45.09 35.5 45.02 55.62l.14-43.98c.06-20.12-14.95-40.27-45.02-55.62Zm-153.41-19.35-.14 43.98c6.39-1.02 12.89-1.82 19.46-2.4 5.6-.49 11.25-.83 16.92-1l.14-43.98c-5.66.17-11.31.5-16.92 1-6.56.58-13.06 1.38-19.46 2.4Z" class="Vector" />
      </g>
      <g class="Group">
        <path fill="#0F062D" stroke="#0F062D" stroke-linecap="round" stroke-linejoin="round" stroke-width="2" d="M326.94 194.27c74.87 38.22 75.26 100.19.87 138.41s-195.39 38.22-270.26 0c-74.88-38.22-75.27-100.19-.88-138.41 74.38-38.22 195.39-38.22 270.27 0ZM84.75 318.71c59.75 30.5 156.33 30.51 215.7 0 59.37-30.5 59.05-79.97-.7-110.47-59.76-30.51-156.34-30.5-215.7 0-59.37 30.51-59.06 79.96.7 110.47Z" class="Vector" />
      </g>
      <path fill="url(#b)" d="M83.9 318.71c59.75 30.5 156.33 30.51 215.7 0 18.09-9.3 30.63-20.35 37.64-32.1.02-92.83.05-282.04.05-282.04H45.56s-.03 188.87-.04 281.5c7.1 11.95 19.89 23.2 38.39 32.64h-.01Z" class="glow" opacity=".5" />
      <path fill="#fff" stroke="#0F062D" stroke-linecap="round" stroke-linejoin="round" stroke-width="2" d="M383.32 265.43c-.11 3.24-.52 6.47-1.25 9.7-.72 3.19-1.75 6.37-3.09 9.51-1.37 3.24-3.07 6.44-5.09 9.61-2.19 3.42-4.75 6.79-7.69 10.1-3.43 3.86-7.39 7.62-11.85 11.27-6.85 5.59-14.92 10.91-24.2 15.84-.77.41-1.55.82-2.33 1.22-12.75 6.55-26.86 11.98-41.88 16.28l-.14 43.98c15.02-4.31 29.13-9.73 41.88-16.28.79-.4 1.56-.81 2.33-1.22 9.28-4.94 17.35-10.25 24.2-15.84 4.47-3.65 8.42-7.41 11.85-11.27 2.94-3.3 5.51-6.68 7.69-10.1 2.02-3.16 3.72-6.37 5.09-9.61 1.34-3.15 2.36-6.32 3.09-9.51.73-3.22 1.15-6.46 1.25-9.7.02-.49.03-.99.03-1.48l.14-43.98c0 .49-.01.99-.03 1.48Zm-157.95 94.49c-7.02.62-14.1 1.03-21.19 1.25l-.14 43.98c7.1-.21 14.17-.63 21.19-1.25 8.22-.72 16.37-1.72 24.38-3l.14-43.98c-8.01 1.28-16.16 2.28-24.38 3Z" class="Vector" />
      <path fill="#2C4BF3" stroke="#0F062D" stroke-linecap="round" stroke-linejoin="round" stroke-width="2" d="m249.75 356.92-.14 43.98c12.45-1.99 24.59-4.64 36.18-7.96l.14-43.98c-11.59 3.32-23.73 5.98-36.18 7.96Zm-65.14 4.33c-6.29-.14-12.58-.44-18.82-.89s-12.44-1.07-18.58-1.84c-6.39-.8-12.71-1.77-18.95-2.91-6.76-1.24-13.42-2.68-19.93-4.32-7.97-2.01-15.73-4.32-23.2-6.93-9.71-3.39-18.94-7.28-27.57-11.69-37.68-19.23-56.5-44.48-56.42-69.69L1 306.96c-.08 25.21 18.74 50.46 56.42 69.69 8.62 4.4 17.86 8.3 27.57 11.69 7.48 2.61 15.23 4.92 23.2 6.93 6.51 1.64 13.17 3.08 19.93 4.32 6.23 1.14 12.56 2.11 18.95 2.91 6.14.77 12.34 1.38 18.58 1.84 6.25.46 12.53.75 18.82.89 6.52.14 13.06.12 19.57-.08l.14-43.98c-6.52.2-13.05.22-19.57.08Z" class="Vector" />
      <g class="Group" opacity=".25">
        <g class="Group">
          <path stroke="#34D1BF" stroke-miterlimit="10" d="M204.89 257.7c7.21 3.68 7.25 9.66.08 13.34-7.17 3.68-18.84 3.68-26.05 0-7.21-3.68-7.25-9.66-.08-13.34 7.16-3.68 18.84-3.68 26.05 0Zm-25.1 12.9c6.73 3.44 17.64 3.44 24.32 0 6.68-3.43 6.65-9.02-.08-12.46-6.72-3.43-17.64-3.43-24.32 0-6.69 3.44-6.64 9.02.08 12.46Z" class="Vector" />
          <path stroke="#34D1BF" stroke-miterlimit="10" d="M228.68 245.47c20.41 10.42 20.52 27.37.24 37.79-20.28 10.42-53.38 10.42-73.8 0-20.41-10.42-20.52-27.37-.24-37.79 20.28-10.42 53.38-10.42 73.8 0Zm-72.7 37.35c19.94 10.18 52.26 10.18 72.07 0 19.8-10.17 19.7-26.73-.23-36.91-19.93-10.17-52.27-10.17-72.07 0-19.81 10.18-19.7 26.74.23 36.91Z" class="Vector" />
          <path stroke="#34D1BF" stroke-miterlimit="10" d="M212.82 253.62c11.61 5.93 11.67 15.57.14 21.49-11.53 5.93-30.36 5.93-41.97 0s-11.67-15.57-.14-21.49c11.53-5.93 30.36-5.93 41.97 0Zm-40.97 21.05c11.13 5.68 29.18 5.68 40.25 0 11.05-5.68 11-14.93-.13-20.61s-29.19-5.68-40.25 0c-11.06 5.68-11 14.93.13 20.61Z" class="Vector" />
          <path stroke="#34D1BF" stroke-miterlimit="10" d="M163.91 278.75c15.54 7.93 40.73 7.93 56.17 0 15.44-7.93 15.35-20.83-.19-28.76-15.53-7.93-40.72-7.93-56.15 0-15.44 7.93-15.35 20.83.18 28.76m56.83-29.21c16.01 8.17 16.1 21.47.19 29.65-15.91 8.18-41.88 8.17-57.89 0-16.01-8.17-16.09-21.47-.18-29.64 15.91-8.17 41.87-8.18 57.88 0v-.01Z" class="Vector" />
          <path stroke="#34D1BF" stroke-miterlimit="10" d="M236.62 241.39c24.82 12.67 24.95 33.28.29 45.95-24.66 12.67-64.9 12.67-89.72 0-24.82-12.67-24.95-33.28-.29-45.95 24.66-12.67 64.9-12.67 89.72 0Zm-88.56 45.51c24.34 12.43 63.81 12.43 87.99 0 24.18-12.42 24.05-32.64-.29-45.06-24.33-12.42-63.82-12.42-87.99 0-24.18 12.43-24.05 32.64.29 45.06Z" class="Vector" />
          <path stroke="#34D1BF" stroke-miterlimit="10" d="M260.41 229.17c38.02 19.41 38.22 50.99.45 70.4-37.78 19.41-99.44 19.41-137.46 0-38.02-19.41-38.22-50.99-.45-70.4 37.78-19.41 99.44-19.41 137.46 0Zm-136.16 69.96c37.55 19.17 98.44 19.17 135.74 0 37.3-19.16 37.11-50.35-.44-69.52-37.54-19.16-98.44-19.16-135.74 0-37.3 19.17-37.1 50.35.44 69.52Z" class="Vector" />
          <path stroke="#34D1BF" stroke-miterlimit="10" d="M196.95 261.77c-2.81-1.43-7.34-1.43-10.13 0-2.79 1.43-2.78 3.76.03 5.19 2.8 1.43 7.36 1.43 10.14 0 2.79-1.43 2.76-3.76-.04-5.19Zm-9.24 4.75c-2.32-1.19-2.33-3.12-.02-4.31 2.31-1.19 6.08-1.19 8.4 0 2.33 1.19 2.34 3.12.04 4.31-2.31 1.19-6.09 1.19-8.42 0Z" class="Vector" />
          <path stroke="#34D1BF" stroke-miterlimit="10" d="M252.48 233.24c33.62 17.16 33.8 45.08.4 62.25-33.4 17.16-87.92 17.16-121.54 0-33.62-17.16-33.8-45.08-.4-62.25 33.4-17.16 87.92-17.16 121.54 0Zm-120.29 61.81c33.15 16.92 86.89 16.92 119.82 0 32.92-16.92 32.76-44.44-.39-61.36-33.14-16.92-86.9-16.92-119.82 0-32.92 16.92-32.75 44.45.39 61.36Z" class="Vector" />
          <path stroke="#34D1BF" stroke-miterlimit="10" d="M268.35 225.09c42.43 21.66 42.65 56.9.5 78.55-42.15 21.66-110.96 21.66-153.39 0-42.43-21.66-42.64-56.89-.49-78.55 42.15-21.66 110.95-21.66 153.38 0ZM116.32 303.2c41.95 21.41 109.98 21.41 151.66 0 41.68-21.41 41.45-56.25-.5-77.67-41.94-21.41-109.97-21.41-151.65 0-41.68 21.41-41.46 56.26.49 77.67Z" class="Vector" />
          <path stroke="#34D1BF" stroke-miterlimit="10" d="M276.27 221.02c46.83 23.9 47.08 62.79.55 86.7-46.52 23.9-122.46 23.9-169.29 0s-47.08-62.79-.55-86.7c46.52-23.9 122.46-23.9 169.29 0Zm-167.88 86.26c46.35 23.66 121.52 23.66 167.57 0s45.81-62.15-.55-85.82c-46.34-23.66-121.52-23.66-167.57 0s-45.8 62.16.55 85.82Z" class="Vector" />
          <path stroke="#34D1BF" stroke-miterlimit="10" d="M292.14 212.86c55.63 28.4 55.93 74.61.66 103.01-55.27 28.4-145.5 28.4-201.13 0-55.63-28.4-55.92-74.6-.65-103 55.27-28.4 145.49-28.4 201.13 0l-.01-.01ZM92.52 315.43c55.16 28.16 144.61 28.16 199.41 0 54.8-28.16 54.5-73.96-.66-102.12-55.15-28.15-144.59-28.16-199.39 0-54.8 28.16-54.51 73.97.64 102.12Z" class="Vector" />
          <path stroke="#34D1BF" stroke-miterlimit="10" d="M300.07 208.79c60.03 30.65 60.35 80.51.71 111.15-59.64 30.65-157 30.65-217.04 0-60.03-30.65-60.35-80.51-.71-111.15 59.64-30.65 157-30.65 217.04 0ZM84.6 319.5c59.56 30.4 156.14 30.4 215.31 0 59.17-30.4 58.86-79.87-.7-110.27-59.55-30.4-156.14-30.4-215.31 0-59.17 30.4-58.85 79.87.7 110.27Z" class="Vector" />
          <path stroke="#34D1BF" stroke-miterlimit="10" d="M140.12 290.97c28.74 14.67 75.36 14.67 103.91 0 28.55-14.67 28.4-38.54-.35-53.21-28.74-14.67-75.35-14.67-103.9 0-28.56 14.67-28.4 38.54.33 53.21m104.44-53.66c29.22 14.92 29.37 39.19.34 54.1-29.03 14.92-76.42 14.92-105.64 0s-29.37-39.18-.34-54.1c29.03-14.92 76.41-14.92 105.63 0h.01Z" class="Vector" />
          <path stroke="#34D1BF" stroke-miterlimit="10" d="M284.21 216.94c51.23 26.15 51.5 68.7.6 94.85-50.9 26.15-133.98 26.15-185.21 0-51.23-26.15-51.5-68.7-.6-94.85 50.9-26.15 133.98-26.15 185.21 0Zm-183.75 94.41c50.75 25.91 133.06 25.91 183.49 0 50.42-25.9 50.16-68.06-.6-93.97-50.75-25.9-133.07-25.9-183.49 0-50.43 25.91-50.15 68.07.6 93.97Z" class="Vector" />
        </g>
      </g>
      <path fill="#34D1BF" d="M301.33 208.86 83.88 320.59l-1.41-.72 217.45-111.73 1.41.72Z" class="Vector" />
      <path fill="#34D1BF" d="m302.04 319.87-1.41.72L81.77 208.87l1.4-.72 218.87 111.72Z" class="Vector" />
      <g class="cross-hair" opacity=".5">
        <path fill="#34D1BF" d="M191.64 155.14c59.1-30.17 107.16-5.95 107.36 54.09l-107.01 54.62-.35-108.72v.01Z" class="Vector" />
      </g>
      <g class="cross-hair" opacity=".5">
        <path fill="#34D1BF" d="m191.8 154.92.35 109.63-107.91 55.09c-.19-60.55 47.96-134.29 107.56-164.71v-.01Z" class="Vector" />
      </g>
      <g class="cross-hair" opacity=".5">
        <path fill="#34D1BF" d="m191.44 154.26-.35 109.23-107.52-54.88c.19-60.32 48.49-84.66 107.87-54.35Z" class="Vector" />
      </g>
      <g class="cross-hair" opacity=".5">
        <path fill="#34D1BF" d="M191.5 154.43c59.77 30.51 108.07 104.48 107.87 165.2l-108.23-55.25.35-109.96.01.01Z" class="Vector" />
      </g>
      <g class="Group">
        <path fill="#2C4BF3" d="M350.26 363.56c11.37-5.8 20.61-1.15 20.65 10.4.04 11.55-9.14 25.61-20.51 31.41-11.36 5.8-20.6 1.14-20.64-10.41-.04-11.54 9.14-25.6 20.51-31.4h-.01Z" class="Vector" />
      </g>
      <path fill="#EEE" stroke="#0F062D" stroke-linecap="round" stroke-linejoin="round" stroke-width="2" d="M329.76 394.96c0-1.16.09-2.36.26-3.56.12-.84.29-1.68.49-2.52.17-.69.36-1.39.58-2.09.19-.62.41-1.24.64-1.85a41.371 41.371 0 0 1 1.45-3.35l-37.71-19.38c-.27.54-.52 1.09-.75 1.63a36.432 36.432 0 0 0-1.34 3.57c-.22.7-.41 1.39-.58 2.09-.2.85-.37 1.69-.49 2.52-.18 1.21-.27 2.4-.26 3.56.02 5.74 2.31 9.78 6 11.67l37.71 19.38c-3.69-1.9-5.98-5.93-6-11.67Zm11.38-24.58L303.43 351c-.57.58-1.13 1.18-1.67 1.8a42.471 42.471 0 0 0-2.56 3.21c-.37.51-.72 1.02-1.06 1.54l37.71 19.38c.34-.52.7-1.03 1.06-1.54.38-.53.78-1.06 1.19-1.57.44-.56.9-1.11 1.37-1.64.54-.62 1.1-1.22 1.67-1.8Z" class="Vector" />
      <path fill="#fff" stroke="#0F062D" stroke-linecap="round" stroke-linejoin="round" stroke-width="2" d="M297.17 359.09c-.31.51-.6 1.03-.89 1.55-.29.52-.56 1.05-.82 1.58l37.71 19.38c.26-.53.53-1.06.82-1.58.28-.52.58-1.04.89-1.55.31-.52.63-1.03.97-1.53l-37.71-19.38c-.33.51-.66 1.02-.97 1.53Zm30.03-16.18s-.07-.04-.11-.06c-.04-.02-.09-.04-.13-.06-.25-.12-.5-.23-.76-.33-.05-.02-.09-.04-.14-.06a.564.564 0 0 1-.12-.04c-.3-.11-.61-.21-.93-.29-.01 0-.02 0-.04-.01-.33-.09-.68-.15-1.03-.21-.04 0-.08-.02-.12-.02-.05 0-.11 0-.16-.02-.3-.04-.61-.08-.93-.1-.05 0-.1-.01-.15-.02h-.05c-.39-.02-.79-.02-1.19 0h-.12c-.05 0-.11.01-.16.01-.45.02-.91.06-1.38.12-.56.08-1.13.19-1.7.32-.03 0-.07.01-.1.02-.02 0-.04.01-.06.02-.37.09-.74.19-1.11.3-.07.02-.15.05-.23.07-.3.09-.6.2-.91.31-.04.01-.08.03-.12.04-.07.03-.15.06-.22.09-.32.12-.65.26-.98.4-.12.05-.25.11-.37.16-.43.19-.87.4-1.3.62-2.41 1.23-4.73 2.83-6.87 4.71-.77.67-1.52 1.38-2.25 2.12l37.71 19.38c.73-.74 1.48-1.44 2.25-2.12 2.15-1.87 4.46-3.48 6.87-4.71.44-.22.87-.43 1.31-.62.12-.06.25-.11.37-.16.33-.14.66-.27.98-.4.11-.04.23-.09.34-.13.31-.11.61-.21.91-.31.07-.02.15-.05.22-.07.37-.11.74-.21 1.11-.3l.16-.03a15.5 15.5 0 0 1 1.71-.32c.47-.06.92-.1 1.38-.12.09 0 .18-.01.27-.01.4-.01.8-.01 1.19 0 .07 0 .14.01.2.02.32.02.62.05.93.1.09.01.19.03.28.04.35.06.69.12 1.03.21.02 0 .03 0 .05.01.32.08.62.18.92.29.09.03.18.07.26.1.26.1.51.21.76.33.08.04.17.07.25.12l-37.71-19.38-.01-.01Z" class="Vector" />
      <g class="Group">
        <path fill="#fff" stroke="#0F062D" stroke-linecap="round" stroke-linejoin="round" stroke-width="2" d="M511.169 472.44c11.951-15.889 13.811-34.658 4.154-41.922-9.657-7.264-27.174-.272-39.126 15.617-11.951 15.889-13.811 34.659-4.154 41.922 9.657 7.264 27.174.272 39.126-15.617Z" class="Vector" />
      </g>
      <path fill="#fff" stroke="#0F062D" stroke-linecap="round" stroke-linejoin="round" stroke-width="2" d="M324.69 369.55c-.49.68-.97 1.38-1.44 2.08-.45.68-.89 1.37-1.31 2.07l150.85 77.51c.42-.7.86-1.39 1.31-2.07.46-.7.94-1.4 1.44-2.08.52-.72 1.06-1.43 1.61-2.13L326.3 367.42c-.55.7-1.09 1.41-1.61 2.13Zm172.49 59.91c.15-.06.31-.12.46-.18.41-.15.82-.29 1.23-.41.1-.03.2-.07.3-.1.51-.15 1-.29 1.5-.41.29-.07.58-.13.87-.19l.4-.09c.42-.08.84-.15 1.26-.21.63-.09 1.25-.13 1.86-.16.12 0 .25-.01.37-.02.55-.02 1.09-.02 1.61.01.09 0 .18.02.28.02a17.332 17.332 0 0 1 1.64.19c.47.08.94.17 1.39.28.02 0 .04.01.06.02.43.11.84.24 1.25.39.12.04.24.09.36.13.35.13.69.28 1.02.44.11.05.23.1.33.16l-150.85-77.51c-.05-.03-.1-.05-.15-.08-.06-.03-.12-.05-.18-.08-.33-.16-.68-.31-1.03-.44-.06-.03-.12-.06-.19-.08-.05-.02-.11-.03-.16-.05-.41-.15-.82-.28-1.25-.39-.02 0-.03-.01-.05-.02h-.01c-.45-.12-.92-.21-1.39-.28-.05 0-.11-.02-.16-.03-.07-.01-.15-.01-.22-.02-.41-.06-.83-.1-1.26-.13-.07 0-.13-.02-.2-.02h-.07c-.53-.03-1.07-.03-1.61-.01h-.16c-.07 0-.14.02-.21.02-.61.03-1.23.08-1.86.16-.41.06-.83.13-1.25.21l-.4.09c-.26.05-.53.11-.79.17-.03 0-.05.02-.08.02-.49.12-.99.26-1.5.41-.1.03-.2.07-.3.1-.41.13-.82.26-1.23.41-.05.02-.11.03-.16.05l-.3.12c-.44.17-.88.35-1.33.54-.17.07-.33.14-.5.22-.58.26-1.17.54-1.76.84-3.26 1.67-6.39 3.83-9.3 6.37-1.04.91-2.06 1.87-3.04 2.86l150.85 77.51c.98-1 2-1.95 3.04-2.86 2.9-2.53 6.03-4.7 9.3-6.37.59-.3 1.18-.58 1.76-.84.17-.08.33-.15.5-.22.45-.19.89-.37 1.33-.54h-.02Z" class="Vector" />
      <path fill="#2C4BF3" stroke="#0F062D" stroke-linecap="round" stroke-linejoin="round" stroke-width="2" d="M465.86 473.52c0-1.58.12-3.18.36-4.81.17-1.13.39-2.27.66-3.41.23-.94.49-1.88.78-2.82.26-.84.55-1.67.87-2.51a51.165 51.165 0 0 1 1.96-4.53c.35-.72.72-1.43 1.11-2.13.38-.7.78-1.4 1.2-2.09l-150.85-77.51c-.42.69-.82 1.39-1.2 2.09-.39.71-.75 1.42-1.11 2.13-.36.73-.7 1.47-1.02 2.21-.34.77-.65 1.55-.94 2.32-.31.83-.6 1.67-.87 2.51-.3.94-.56 1.88-.78 2.82-.27 1.14-.5 2.28-.66 3.41a33.06 33.06 0 0 0-.36 4.81c.02 7.76 3.12 13.21 8.12 15.78l150.85 77.51c-4.99-2.57-8.09-8.02-8.12-15.78ZM330.41 362.78c-.77.79-1.53 1.6-2.26 2.43-.63.72-1.25 1.46-1.85 2.22l150.85 77.51c.6-.75 1.22-1.5 1.85-2.22a57.5 57.5 0 0 1 2.26-2.43l-150.85-77.51Z" class="Vector" />
    </g>
  </g>
  <defs>
    <linearGradient id="a" x1="190.91" x2="190.91" y1="557.63" y2="0" class="a" gradientUnits="userSpaceOnUse">
      <stop stop-color="#2C4BF3" />
      <stop offset=".04" stop-color="#2C4BF3" stop-opacity=".87" />
      <stop offset=".12" stop-color="#2C4BF3" stop-opacity=".64" />
      <stop offset=".2" stop-color="#2C4BF3" stop-opacity=".45" />
      <stop offset=".28" stop-color="#2C4BF3" stop-opacity=".28" />
      <stop offset=".36" stop-color="#2C4BF3" stop-opacity=".16" />
      <stop offset=".44" stop-color="#2C4BF3" stop-opacity=".07" />
      <stop offset=".51" stop-color="#2C4BF3" stop-opacity=".02" />
      <stop offset=".58" stop-color="#2C4BF3" stop-opacity="0" />
    </linearGradient>
    <linearGradient id="b" x1="191.41" x2="191.41" y1="341.59" y2="4.57" class="b" gradientUnits="userSpaceOnUse">
      <stop stop-color="#34D1BF" />
      <stop offset=".15" stop-color="#34D1BF" stop-opacity=".84" />
      <stop offset=".57" stop-color="#34D1BF" stop-opacity=".39" />
      <stop offset=".86" stop-color="#34D1BF" stop-opacity=".11" />
      <stop offset="1" stop-color="#34D1BF" stop-opacity="0" />
    </linearGradient>
  </defs>
</svg>